<svg xmlns="http://www.w3.org/2000/svg" xmlns:xlink="http://www.w3.org/1999/xlink" version="1.1" width="256" height="256" viewBox="0 0 256 256" xml:space="preserve">

<defs>
</defs>
<g style="stroke: none; stroke-width: 0; stroke-dasharray: none; stroke-linecap: butt; stroke-linejoin: miter; stroke-miterlimit: 10; fill: none; fill-rule: nonzero; opacity: 1;" transform="translate(1.4065934065934016 1.4065934065934016) scale(2.81 2.81)" >
	<path d="M 14.971 86.134 c -0.193 0 -0.388 -0.038 -0.574 -0.116 c -0.551 -0.231 -0.909 -0.77 -0.909 -1.368 V 67.853 H 5.177 C 2.322 67.853 0 65.531 0 62.676 V 9.043 c 0 -2.855 2.322 -5.177 5.177 -5.177 h 79.646 C 87.678 3.866 90 6.189 90 9.043 v 53.633 c 0 2.855 -2.322 5.177 -5.177 5.177 H 34.205 L 16.011 85.709 C 15.728 85.987 15.353 86.134 14.971 86.134 z M 5.177 6.833 c -1.218 0 -2.21 0.991 -2.21 2.21 v 53.633 c 0 1.219 0.991 2.21 2.21 2.21 h 9.795 c 0.82 0 1.484 0.664 1.484 1.484 v 14.746 L 32.56 65.31 c 0.278 -0.272 0.65 -0.425 1.039 -0.425 h 51.224 c 1.219 0 2.21 -0.991 2.21 -2.21 V 9.043 c 0 -1.218 -0.991 -2.21 -2.21 -2.21 H 5.177 z" style="stroke: none; stroke-width: 1; stroke-dasharray: none; stroke-linecap: butt; stroke-linejoin: miter; stroke-miterlimit: 10; fill: rgb(0,0,0); fill-rule: nonzero; opacity: 1;" transform=" matrix(1 0 0 1 0 0) " stroke-linecap="round" />
	<path d="M 56.64 56.301 H 36.973 v -8.39 h 3.656 V 37.356 h -3.656 v -8.391 h 16.011 v 18.945 h 3.656 V 56.301 z M 39.94 53.334 h 13.733 v -2.456 h -3.656 V 31.933 H 39.94 v 2.457 h 3.656 v 16.489 H 39.94 V 53.334 z" style="stroke: none; stroke-width: 1; stroke-dasharray: none; stroke-linecap: butt; stroke-linejoin: miter; stroke-miterlimit: 10; fill: rgb(0,0,0); fill-rule: nonzero; opacity: 1;" transform=" matrix(1 0 0 1 0 0) " stroke-linecap="round" />
	<path d="M 46.807 26.22 c -3.406 0 -6.178 -2.771 -6.178 -6.178 c 0 -3.406 2.771 -6.178 6.178 -6.178 c 3.406 0 6.177 2.771 6.177 6.178 C 52.985 23.448 50.214 26.22 46.807 26.22 z M 46.807 16.831 c -1.77 0 -3.211 1.441 -3.211 3.211 c 0 1.771 1.441 3.211 3.211 3.211 c 1.77 0 3.21 -1.441 3.21 -3.211 C 50.017 18.271 48.577 16.831 46.807 16.831 z" style="stroke: none; stroke-width: 1; stroke-dasharray: none; stroke-linecap: butt; stroke-linejoin: miter; stroke-miterlimit: 10; fill: rgb(0,0,0); fill-rule: nonzero; opacity: 1;" transform=" matrix(1 0 0 1 0 0) " stroke-linecap="round" />
</g>
</svg>