<svg xmlns="http://www.w3.org/2000/svg" xmlns:xlink="http://www.w3.org/1999/xlink" version="1.1" width="256" height="256" viewBox="0 0 256 256" xml:space="preserve">

<defs>
</defs>
<g style="stroke: none; stroke-width: 0; stroke-dasharray: none; stroke-linecap: butt; stroke-linejoin: miter; stroke-miterlimit: 10; fill: none; fill-rule: nonzero; opacity: 1;" transform="translate(1.4065934065934016 1.4065934065934016) scale(2.81 2.81)" >
	<path d="M 53.026 45.823 c 3.572 -2.527 5.916 -6.682 5.916 -11.381 C 58.941 26.754 52.688 20.5 45 20.5 s -13.942 6.254 -13.942 13.942 c 0 4.699 2.344 8.854 5.916 11.381 C 28.172 49.092 21.883 57.575 21.883 67.5 c 0 1.104 0.896 2 2 2 s 2 -0.896 2 -2 c 0 -10.541 8.576 -19.116 19.117 -19.116 S 64.116 56.959 64.116 67.5 c 0 1.104 0.896 2 2 2 s 2 -0.896 2 -2 C 68.116 57.575 61.827 49.092 53.026 45.823 z M 35.058 34.442 c 0 -5.482 4.46 -9.942 9.942 -9.942 c 5.481 0 9.941 4.46 9.941 9.942 s -4.46 9.942 -9.941 9.942 C 39.518 44.384 35.058 39.924 35.058 34.442 z" style="stroke: none; stroke-width: 1; stroke-dasharray: none; stroke-linecap: butt; stroke-linejoin: miter; stroke-miterlimit: 10; fill: rgb(0,0,0); fill-rule: nonzero; opacity: 1;" transform=" matrix(1 0 0 1 0 0) " stroke-linecap="round" />
	<path d="M 45 0 C 20.187 0 0 20.187 0 45 c 0 24.813 20.187 45 45 45 c 24.813 0 45 -20.187 45 -45 C 90 20.187 69.813 0 45 0 z M 45 86 C 22.393 86 4 67.607 4 45 S 22.393 4 45 4 s 41 18.393 41 41 S 67.607 86 45 86 z" style="stroke: none; stroke-width: 1; stroke-dasharray: none; stroke-linecap: butt; stroke-linejoin: miter; stroke-miterlimit: 10; fill: rgb(0,0,0); fill-rule: nonzero; opacity: 1;" transform=" matrix(1 0 0 1 0 0) " stroke-linecap="round" />
</g>
</svg>