<svg xmlns="http://www.w3.org/2000/svg" xmlns:xlink="http://www.w3.org/1999/xlink" version="1.1" width="256" height="256" viewBox="0 0 256 256" xml:space="preserve">

<defs>
</defs>
<g style="stroke: none; stroke-width: 0; stroke-dasharray: none; stroke-linecap: butt; stroke-linejoin: miter; stroke-miterlimit: 10; fill: none; fill-rule: nonzero; opacity: 1;" transform="translate(1.4065934065934016 1.4065934065934016) scale(2.81 2.81)" >
	<path d="M 77.435 77.343 H 12.565 c -3.467 0 -6.288 -2.82 -6.288 -6.287 c 0 -3.905 1.703 -7.601 4.673 -10.138 c 1.634 -1.395 2.57 -3.427 2.57 -5.574 V 31.479 C 13.521 14.122 27.643 0 45 0 s 31.479 14.122 31.479 31.479 v 23.865 c 0 2.147 0.937 4.179 2.57 5.574 c 2.97 2.537 4.673 6.231 4.673 10.138 C 83.722 74.522 80.901 77.343 77.435 77.343 z M 45 6 C 30.951 6 19.521 17.43 19.521 31.479 v 23.865 c 0 3.905 -1.703 7.601 -4.673 10.137 c -1.633 1.396 -2.57 3.427 -2.57 5.575 c 0 0.158 0.129 0.287 0.288 0.287 h 64.869 c 0.158 0 0.287 -0.129 0.287 -0.287 c 0 -2.148 -0.937 -4.181 -2.569 -5.575 c -2.971 -2.537 -4.674 -6.232 -4.674 -10.137 V 31.479 C 70.479 17.43 59.049 6 45 6 z" style="stroke: none; stroke-width: 1; stroke-dasharray: none; stroke-linecap: butt; stroke-linejoin: miter; stroke-miterlimit: 10; fill: rgb(0,0,0); fill-rule: nonzero; opacity: 1;" transform=" matrix(1 0 0 1 0 0) " stroke-linecap="round" />
	<path d="M 45 90 c -8.589 0 -15.576 -6.987 -15.576 -15.576 c 0 -0.055 0.002 -0.133 0.006 -0.199 c 0.062 -1.602 1.38 -2.882 2.998 -2.882 c 1.657 0 3 1.343 3 3 c 0 0.041 -0.001 0.095 -0.004 0.146 C 35.459 79.74 39.742 84 45 84 c 5.259 0 9.541 -4.261 9.576 -9.512 c -0.002 -0.052 -0.004 -0.105 -0.004 -0.146 c 0 -1.657 1.343 -3 3 -3 c 1.618 0 2.938 1.282 2.998 2.886 c 0.003 0.065 0.006 0.143 0.006 0.195 C 60.576 83.013 53.589 90 45 90 z" style="stroke: none; stroke-width: 1; stroke-dasharray: none; stroke-linecap: butt; stroke-linejoin: miter; stroke-miterlimit: 10; fill: rgb(0,0,0); fill-rule: nonzero; opacity: 1;" transform=" matrix(1 0 0 1 0 0) " stroke-linecap="round" />
</g>
</svg>