<svg xmlns="http://www.w3.org/2000/svg" xmlns:xlink="http://www.w3.org/1999/xlink" version="1.1" width="256" height="256" viewBox="0 0 256 256" xml:space="preserve">

<defs>
</defs>
<g style="stroke: none; stroke-width: 0; stroke-dasharray: none; stroke-linecap: butt; stroke-linejoin: miter; stroke-miterlimit: 10; fill: none; fill-rule: nonzero; opacity: 1;" transform="translate(1.4065934065934016 1.4065934065934016) scale(2.81 2.81)" >
	<path d="M 56.912 90 H 18.601 c -1.693 0 -3.071 -1.378 -3.071 -3.071 V 3.071 C 15.529 1.377 16.907 0 18.601 0 h 52.799 c 1.693 0 3.071 1.377 3.071 3.071 v 70.737 c 0 0.553 -0.447 1 -1 1 s -1 -0.447 -1 -1 V 3.071 C 72.471 2.48 71.99 2 71.399 2 H 18.601 c -0.591 0 -1.071 0.48 -1.071 1.071 v 83.858 c 0 0.591 0.48 1.071 1.071 1.071 h 38.312 c 0.553 0 1 0.447 1 1 S 57.465 90 56.912 90 z" style="stroke: none; stroke-width: 1; stroke-dasharray: none; stroke-linecap: butt; stroke-linejoin: miter; stroke-miterlimit: 10; fill: rgb(0,0,0); fill-rule: nonzero; opacity: 1;" transform=" matrix(1 0 0 1 0 0) " stroke-linecap="round" />
	<path d="M 67.482 89.767 c -1.059 0 -2.117 -0.402 -2.924 -1.209 L 51.834 75.832 c -0.824 -0.824 -1.439 -1.848 -1.779 -2.962 l -2.039 -6.673 c -0.23 -0.752 -0.027 -1.566 0.529 -2.123 c 0.557 -0.558 1.368 -0.763 2.124 -0.529 l 6.672 2.039 l 0 0 c 1.114 0.34 2.138 0.955 2.962 1.779 l 12.725 12.725 c 1.612 1.612 1.612 4.236 0 5.849 l -2.62 2.621 C 69.602 89.364 68.542 89.767 67.482 89.767 z M 50.043 65.45 c -0.023 0 -0.054 0.008 -0.084 0.038 c -0.053 0.053 -0.037 0.104 -0.031 0.124 l 2.039 6.674 c 0.245 0.802 0.688 1.539 1.281 2.132 l 12.725 12.726 c 0.833 0.833 2.189 0.83 3.021 0 l 2.62 -2.621 c 0.833 -0.833 0.833 -2.188 0 -3.021 L 58.889 68.777 c -0.593 -0.593 -1.33 -1.036 -2.132 -1.281 l -6.673 -2.039 C 50.075 65.455 50.061 65.45 50.043 65.45 z" style="stroke: none; stroke-width: 1; stroke-dasharray: none; stroke-linecap: butt; stroke-linejoin: miter; stroke-miterlimit: 10; fill: rgb(0,0,0); fill-rule: nonzero; opacity: 1;" transform=" matrix(1 0 0 1 0 0) " stroke-linecap="round" />
	<path d="M 62.621 86.205 c -0.256 0 -0.512 -0.098 -0.707 -0.293 c -0.391 -0.391 -0.391 -1.023 0 -1.414 l 7.055 -7.055 c 0.391 -0.391 1.023 -0.391 1.414 0 s 0.391 1.023 0 1.414 l -7.055 7.055 C 63.133 86.107 62.877 86.205 62.621 86.205 z" style="stroke: none; stroke-width: 1; stroke-dasharray: none; stroke-linecap: butt; stroke-linejoin: miter; stroke-miterlimit: 10; fill: rgb(0,0,0); fill-rule: nonzero; opacity: 1;" transform=" matrix(1 0 0 1 0 0) " stroke-linecap="round" />
	<path d="M 62.936 46 H 27.064 c -0.552 0 -1 -0.448 -1 -1 s 0.448 -1 1 -1 h 35.872 c 0.553 0 1 0.448 1 1 S 63.488 46 62.936 46 z" style="stroke: none; stroke-width: 1; stroke-dasharray: none; stroke-linecap: butt; stroke-linejoin: miter; stroke-miterlimit: 10; fill: rgb(0,0,0); fill-rule: nonzero; opacity: 1;" transform=" matrix(1 0 0 1 0 0) " stroke-linecap="round" />
	<path d="M 62.936 56.353 H 27.064 c -0.552 0 -1 -0.447 -1 -1 s 0.448 -1 1 -1 h 35.872 c 0.553 0 1 0.447 1 1 S 63.488 56.353 62.936 56.353 z" style="stroke: none; stroke-width: 1; stroke-dasharray: none; stroke-linecap: butt; stroke-linejoin: miter; stroke-miterlimit: 10; fill: rgb(0,0,0); fill-rule: nonzero; opacity: 1;" transform=" matrix(1 0 0 1 0 0) " stroke-linecap="round" />
	<path d="M 37.054 66.706 h -9.99 c -0.552 0 -1 -0.447 -1 -1 s 0.448 -1 1 -1 h 9.99 c 0.552 0 1 0.447 1 1 S 37.606 66.706 37.054 66.706 z" style="stroke: none; stroke-width: 1; stroke-dasharray: none; stroke-linecap: butt; stroke-linejoin: miter; stroke-miterlimit: 10; fill: rgb(0,0,0); fill-rule: nonzero; opacity: 1;" transform=" matrix(1 0 0 1 0 0) " stroke-linecap="round" />
	<path d="M 43.524 77.059 h -16.46 c -0.552 0 -1 -0.447 -1 -1 s 0.448 -1 1 -1 h 16.46 c 0.552 0 1 0.447 1 1 S 44.076 77.059 43.524 77.059 z" style="stroke: none; stroke-width: 1; stroke-dasharray: none; stroke-linecap: butt; stroke-linejoin: miter; stroke-miterlimit: 10; fill: rgb(0,0,0); fill-rule: nonzero; opacity: 1;" transform=" matrix(1 0 0 1 0 0) " stroke-linecap="round" />
	<path d="M 45 37.209 c -7.566 0 -13.722 -6.156 -13.722 -13.722 c 0 -7.566 6.156 -13.722 13.722 -13.722 c 7.566 0 13.722 6.156 13.722 13.722 C 58.722 31.054 52.566 37.209 45 37.209 z M 45 11.766 c -6.463 0 -11.722 5.258 -11.722 11.722 c 0 6.463 5.258 11.722 11.722 11.722 c 6.463 0 11.722 -5.258 11.722 -11.722 C 56.722 17.024 51.463 11.766 45 11.766 z" style="stroke: none; stroke-width: 1; stroke-dasharray: none; stroke-linecap: butt; stroke-linejoin: miter; stroke-miterlimit: 10; fill: rgb(0,0,0); fill-rule: nonzero; opacity: 1;" transform=" matrix(1 0 0 1 0 0) " stroke-linecap="round" />
	<path d="M 45 27.17 c -2.386 0 -4.327 -1.941 -4.327 -4.327 v -1.958 c 0 -2.386 1.941 -4.327 4.327 -4.327 c 2.386 0 4.327 1.941 4.327 4.327 v 1.958 C 49.327 25.229 47.386 27.17 45 27.17 z M 45 18.558 c -1.283 0 -2.327 1.044 -2.327 2.327 v 1.958 c 0 1.283 1.044 2.327 2.327 2.327 s 2.327 -1.044 2.327 -2.327 v -1.958 C 47.327 19.602 46.283 18.558 45 18.558 z" style="stroke: none; stroke-width: 1; stroke-dasharray: none; stroke-linecap: butt; stroke-linejoin: miter; stroke-miterlimit: 10; fill: rgb(0,0,0); fill-rule: nonzero; opacity: 1;" transform=" matrix(1 0 0 1 0 0) " stroke-linecap="round" />
	<path d="M 45 37.209 c -1.962 0 -3.862 -0.409 -5.647 -1.217 c -0.358 -0.162 -0.588 -0.518 -0.588 -0.911 v -3.676 c 0 -3.438 2.797 -6.235 6.235 -6.235 c 3.438 0 6.235 2.797 6.235 6.235 v 3.676 c 0 0.393 -0.23 0.749 -0.588 0.911 C 48.862 36.8 46.962 37.209 45 37.209 z M 40.765 34.417 c 2.703 1.052 5.768 1.052 8.471 0 v -3.012 c 0 -2.335 -1.9 -4.235 -4.235 -4.235 c -2.335 0 -4.235 1.9 -4.235 4.235 V 34.417 z M 50.235 35.082 h 0.01 H 50.235 z" style="stroke: none; stroke-width: 1; stroke-dasharray: none; stroke-linecap: butt; stroke-linejoin: miter; stroke-miterlimit: 10; fill: rgb(0,0,0); fill-rule: nonzero; opacity: 1;" transform=" matrix(1 0 0 1 0 0) " stroke-linecap="round" />
</g>
</svg>