<svg xmlns="http://www.w3.org/2000/svg" xmlns:xlink="http://www.w3.org/1999/xlink" version="1.1" width="256" height="256" viewBox="0 0 256 256" xml:space="preserve">

<defs>
</defs>
<g style="stroke: none; stroke-width: 0; stroke-dasharray: none; stroke-linecap: butt; stroke-linejoin: miter; stroke-miterlimit: 10; fill: none; fill-rule: nonzero; opacity: 1;" transform="translate(1.4065934065934016 1.4065934065934016) scale(2.81 2.81)" >
	<path d="M 42.408 27.798 c -0.233 0 -0.471 -0.055 -0.692 -0.17 c -1.489 -0.776 -2.875 -0.776 -4.364 0 c -0.735 0.382 -1.641 0.098 -2.023 -0.637 c -0.383 -0.734 -0.098 -1.641 0.637 -2.023 c 2.368 -1.234 4.77 -1.234 7.138 0 c 0.735 0.383 1.02 1.289 0.637 2.023 C 43.472 27.504 42.95 27.798 42.408 27.798 z" style="stroke: none; stroke-width: 1; stroke-dasharray: none; stroke-linecap: butt; stroke-linejoin: miter; stroke-miterlimit: 10; fill: rgb(0,0,0); fill-rule: nonzero; opacity: 1;" transform=" matrix(1 0 0 1 0 0) " stroke-linecap="round" />
	<path d="M 47.591 27.798 c -0.541 0 -1.063 -0.294 -1.331 -0.807 c -0.383 -0.735 -0.098 -1.641 0.637 -2.023 c 2.37 -1.235 4.772 -1.234 7.139 0 c 0.734 0.383 1.02 1.289 0.637 2.023 c -0.384 0.736 -1.289 1.02 -2.023 0.637 c -1.487 -0.776 -2.874 -0.777 -4.365 0 C 48.062 27.744 47.824 27.798 47.591 27.798 z" style="stroke: none; stroke-width: 1; stroke-dasharray: none; stroke-linecap: butt; stroke-linejoin: miter; stroke-miterlimit: 10; fill: rgb(0,0,0); fill-rule: nonzero; opacity: 1;" transform=" matrix(1 0 0 1 0 0) " stroke-linecap="round" />
	<path d="M 67.18 52.747 l -7.847 -1.321 c -2.313 -0.39 -3.993 -2.205 -3.993 -4.351 l -0.03 -1.323 c 0.093 -0.089 0.196 -0.165 0.288 -0.256 c 0.87 -0.861 1.667 -1.809 2.369 -2.815 c 0.702 -1.007 1.316 -2.084 1.825 -3.203 c 0.963 -2.117 1.55 -4.37 1.747 -6.722 l 0.67 -10.232 c 0.332 -0.236 0.562 -0.597 0.62 -1.01 c 1.045 -7.458 0.024 -12.839 -3.118 -16.453 C 56.748 1.656 51.997 0 45.188 0 c -4.844 0 -10.893 0.529 -14.71 4.652 c -2.912 3.145 -4.085 7.809 -3.588 14.256 c 0.043 0.559 0.392 1.026 0.88 1.247 l 0.813 12.629 c 0.415 4.966 2.653 9.51 6.112 12.863 l -0.035 1.463 c 0 2.111 -1.679 3.927 -3.993 4.316 l -7.847 1.321 c -4.86 0.819 -8.388 4.759 -8.388 9.367 v 23.978 c 0 2.155 1.845 3.908 4.114 3.908 h 52.908 c 2.269 0 4.113 -1.753 4.113 -3.908 V 62.114 C 75.567 57.505 72.04 53.566 67.18 52.747 z M 52.671 44.089 c -1.609 1.404 -3.429 2.504 -5.456 3.235 c -1.391 0.502 -2.922 0.502 -4.313 0 c -2.749 -0.993 -5.142 -2.653 -7.016 -4.758 c -0.562 -1.352 -0.522 -3.835 0.527 -5.708 c 0.755 -1.35 1.897 -2.142 3.394 -2.355 c 0.073 -0.01 0.142 -0.037 0.213 -0.058 c 0.037 -0.011 0.074 -0.016 0.11 -0.03 c 0.13 -0.05 0.255 -0.113 0.367 -0.197 c 3.09 -2.321 5.949 -2.324 8.998 -0.006 c 0.003 0.002 0.006 0.003 0.008 0.005 c 0.035 0.026 0.077 0.039 0.114 0.062 c 0.094 0.059 0.189 0.116 0.293 0.152 c 0.054 0.019 0.112 0.022 0.168 0.035 c 0.082 0.018 0.161 0.046 0.245 0.05 c 1.215 0.065 2.21 0.711 2.958 1.919 c 1.21 1.954 1.401 4.823 0.815 6.176 c -0.02 0.045 -0.029 0.092 -0.044 0.138 c -0.188 0.205 -0.368 0.418 -0.565 0.613 c -0.17 0.168 -0.356 0.312 -0.532 0.473 C 52.85 43.908 52.755 43.993 52.671 44.089 z M 30.795 20.459 c 0.627 0.03 1.249 0.056 1.853 0.065 c 0.036 0 0.073 0 0.11 -0.002 c 1.655 -0.097 10.162 -0.687 15.09 -2.848 c 2.276 -0.998 4.307 -2.384 6.08 -4.148 c 0.313 3.756 2.784 6.062 5.335 8.069 l -0.357 5.455 c -2.146 1.829 -4.916 3.278 -8.244 4.318 c -3.724 -2.516 -7.635 -2.501 -11.394 0.051 c -3.285 -0.682 -5.719 -1.426 -8.007 -3.705 L 30.795 20.459 z M 57.114 38.106 c -0.262 -1.167 -0.692 -2.297 -1.282 -3.25 c -0.402 -0.649 -0.873 -1.205 -1.395 -1.675 c 1.531 -0.641 2.938 -1.378 4.212 -2.21 l -0.102 1.562 C 58.386 34.468 57.9 36.341 57.114 38.106 z M 58.074 7.871 c 0.003 -0.005 0.006 -0.011 0.009 -0.016 c 1.688 2.465 2.376 6.014 2.058 10.589 C 57.256 16.004 55.645 13.472 58.074 7.871 z M 32.679 6.69 C 35.042 4.138 38.899 3 45.188 3 c 4.713 0 8.222 0.844 10.646 2.571 c -0.152 0.314 -0.294 0.621 -0.426 0.923 c -2.152 3.99 -5.094 6.822 -8.766 8.432 c -3.44 1.508 -9.479 2.33 -14.004 2.597 c -0.916 -0.015 -1.864 -0.056 -2.834 -0.123 C 29.603 12.504 30.547 8.992 32.679 6.69 z M 31.523 31.772 c 1.23 0.792 2.486 1.333 3.729 1.734 c -0.558 0.534 -1.048 1.161 -1.455 1.887 c -0.424 0.758 -0.723 1.566 -0.928 2.382 c -0.691 -1.638 -1.143 -3.391 -1.295 -5.212 L 31.523 31.772 z M 41.884 50.146 c 1.024 0.369 2.1 0.555 3.175 0.555 c 1.076 0 2.151 -0.186 3.176 -0.555 c 1.485 -0.537 2.876 -1.244 4.176 -2.093 c 0.245 1.795 1.177 3.403 2.566 4.565 L 45 68.125 l -9.977 -15.504 c 1.415 -1.182 2.356 -2.821 2.579 -4.641 C 38.924 48.857 40.354 49.594 41.884 50.146 z M 17.432 86.092 V 62.114 c 0 -3.139 2.476 -5.834 5.886 -6.408 l 3.502 -0.59 v 7.105 c -3.022 0.685 -5.288 3.388 -5.288 6.615 v 2.207 c 0 1.712 0.649 3.352 1.828 4.616 c 0.564 0.606 1.513 0.64 2.12 0.075 c 0.606 -0.565 0.64 -1.515 0.075 -2.12 c -0.66 -0.708 -1.023 -1.621 -1.023 -2.571 v -2.207 c 0 -2.088 1.699 -3.787 3.788 -3.787 s 3.788 1.699 3.788 3.787 v 2.207 c 0 0.95 -0.363 1.863 -1.023 2.571 c -0.564 0.605 -0.531 1.555 0.075 2.12 c 0.289 0.27 0.656 0.402 1.022 0.402 c 0.402 0 0.803 -0.16 1.098 -0.478 c 1.179 -1.265 1.828 -2.904 1.828 -4.616 v -2.207 c 0 -3.226 -2.265 -5.929 -5.288 -6.615 v -7.61 l 1.345 -0.226 c 0.424 -0.072 0.833 -0.178 1.228 -0.308 L 43.5 71.337 V 87 H 29.361 c -0.002 -1.012 -0.002 -2.717 0.002 -5.606 c 0.001 -0.828 -0.669 -1.501 -1.498 -1.502 c 0 0 -0.001 0 -0.002 0 c -0.828 0 -1.499 0.67 -1.5 1.498 c -0.004 2.885 -0.004 4.589 -0.002 5.61 h -7.815 C 17.942 87 17.432 86.584 17.432 86.092 z M 72.567 86.092 c 0 0.492 -0.51 0.908 -1.113 0.908 h -7.815 c 0.003 -1.2 0.002 -3.058 -0.002 -5.61 c -0.001 -0.828 -0.673 -1.498 -1.5 -1.498 c -0.001 0 -0.002 0 -0.002 0 c -0.829 0.001 -1.499 0.674 -1.498 1.502 c 0.005 2.9 0.004 4.6 0.003 5.606 H 46.5 V 71.338 l 11.107 -17.261 c 0.395 0.13 0.804 0.237 1.228 0.308 l 1.794 0.302 v 13.469 c -1.031 0.543 -1.743 1.612 -1.743 2.859 c 0 1.791 1.452 3.243 3.243 3.243 c 1.791 0 3.243 -1.452 3.243 -3.243 c 0 -1.247 -0.711 -2.317 -1.743 -2.859 V 55.192 l 3.053 0.514 c 3.41 0.574 5.886 3.27 5.886 6.408 V 86.092 z" style="stroke: none; stroke-width: 1; stroke-dasharray: none; stroke-linecap: butt; stroke-linejoin: miter; stroke-miterlimit: 10; fill: rgb(0,0,0); fill-rule: nonzero; opacity: 1;" transform=" matrix(1 0 0 1 0 0) " stroke-linecap="round" />
</g>
</svg>