<svg xmlns="http://www.w3.org/2000/svg" xmlns:xlink="http://www.w3.org/1999/xlink" version="1.1" width="256" height="256" viewBox="0 0 256 256" xml:space="preserve">

<defs>
</defs>
<g style="stroke: none; stroke-width: 0; stroke-dasharray: none; stroke-linecap: butt; stroke-linejoin: miter; stroke-miterlimit: 10; fill: none; fill-rule: nonzero; opacity: 1;" transform="translate(1.4065934065934016 1.4065934065934016) scale(2.81 2.81)" >
	<path d="M 61.471 53.003 c -2.232 0 -4.048 -1.816 -4.048 -4.048 c 0 -2.232 1.816 -4.048 4.048 -4.048 s 4.048 1.816 4.048 4.048 C 65.519 51.188 63.703 53.003 61.471 53.003 z M 61.471 47.875 c -0.596 0 -1.081 0.485 -1.081 1.081 c 0 0.596 0.485 1.081 1.081 1.081 c 0.596 0 1.081 -0.485 1.081 -1.081 C 62.552 48.36 62.067 47.875 61.471 47.875 z" style="stroke: none; stroke-width: 1; stroke-dasharray: none; stroke-linecap: butt; stroke-linejoin: miter; stroke-miterlimit: 10; fill: rgb(0,0,0); fill-rule: nonzero; opacity: 1;" transform=" matrix(1 0 0 1 0 0) " stroke-linecap="round" />
	<path d="M 75.222 39.317 h -1.033 V 13.171 c 0 -2.587 -2.105 -4.692 -4.691 -4.692 H 35.51 V 2.272 c 0 -0.918 -0.547 -1.74 -1.393 -2.094 c -0.818 -0.343 -1.753 -0.179 -2.406 0.414 l -4.473 3.63 l -4.473 -3.63 c -0.652 -0.594 -1.586 -0.756 -2.406 -0.414 c -0.846 0.355 -1.393 1.177 -1.393 2.094 V 8.48 h -2.704 c -2.587 0 -4.692 2.105 -4.692 4.692 v 72.138 c 0 2.587 2.105 4.691 4.692 4.691 h 53.236 c 2.587 0 4.691 -2.105 4.691 -4.691 V 58.594 h 1.033 c 1.769 0 3.208 -1.439 3.208 -3.208 v -12.86 C 78.43 40.756 76.991 39.317 75.222 39.317 z M 71.221 13.171 v 26.145 h -5.138 v -27.87 h 3.414 C 70.448 11.447 71.221 12.22 71.221 13.171 z M 21.932 3.737 L 26 7.038 c 0.717 0.583 1.757 0.585 2.475 0.001 l 4.068 -3.301 V 8.48 H 21.932 V 3.737 z M 14.537 85.309 V 13.171 c 0 -0.951 0.774 -1.724 1.724 -1.724 h 46.855 v 27.87 h -1.809 c -5.315 0 -9.638 4.324 -9.638 9.639 c 0 5.315 4.323 9.638 9.638 9.638 h 1.809 v 28.439 H 16.261 C 15.31 87.033 14.537 86.259 14.537 85.309 z M 71.221 85.309 c 0 0.95 -0.774 1.724 -1.724 1.724 h -3.414 V 58.594 h 5.138 V 85.309 z M 61.307 55.379 c -3.542 0 -6.424 -2.882 -6.424 -6.424 c 0 -3.542 2.882 -6.424 6.424 -6.424 l 13.909 -0.006 l 0.006 12.854 H 61.307 z" style="stroke: none; stroke-width: 1; stroke-dasharray: none; stroke-linecap: butt; stroke-linejoin: miter; stroke-miterlimit: 10; fill: rgb(0,0,0); fill-rule: nonzero; opacity: 1;" transform=" matrix(1 0 0 1 0 0) " stroke-linecap="round" />
	<path d="M 45.24 55.232 L 33.108 29.216 c -0.693 -1.486 -2.466 -2.132 -3.954 -1.439 l -7.103 3.312 c -1.486 0.694 -2.131 2.468 -1.438 3.954 l 12.132 26.018 c 0.21 0.449 0.534 0.844 0.939 1.142 l 6.563 4.804 c 0.519 0.381 1.136 0.575 1.758 0.575 c 0.427 0 0.856 -0.092 1.256 -0.278 c 0.984 -0.459 1.64 -1.417 1.712 -2.5 l 0.539 -8.115 C 45.545 56.189 45.452 55.687 45.24 55.232 z M 30.39 30.484 l 1.433 3.074 l -7.077 3.3 l -1.426 -3.05 L 30.39 30.484 z M 42.02 64.586 l -6.556 -4.795 l -9.448 -20.216 l 7.075 -3.299 l 9.428 20.218 L 42.02 64.586 z" style="stroke: none; stroke-width: 1; stroke-dasharray: none; stroke-linecap: butt; stroke-linejoin: miter; stroke-miterlimit: 10; fill: rgb(0,0,0); fill-rule: nonzero; opacity: 1;" transform=" matrix(1 0 0 1 0 0) " stroke-linecap="round" />
</g>
</svg>