<svg xmlns="http://www.w3.org/2000/svg" xmlns:xlink="http://www.w3.org/1999/xlink" version="1.1" width="256" height="256" viewBox="0 0 256 256" xml:space="preserve">

<defs>
</defs>
<g style="stroke: none; stroke-width: 0; stroke-dasharray: none; stroke-linecap: butt; stroke-linejoin: miter; stroke-miterlimit: 10; fill: none; fill-rule: nonzero; opacity: 1;" transform="translate(1.4065934065934016 1.4065934065934016) scale(2.81 2.81)" >
	<path d="M 36.076 39.684 H 3.608 C 1.615 39.684 0 38.068 0 36.076 V 3.608 C 0 1.615 1.615 0 3.608 0 h 32.468 c 1.992 0 3.608 1.615 3.608 3.608 v 32.468 C 39.684 38.068 38.068 39.684 36.076 39.684 z" style="stroke: none; stroke-width: 1; stroke-dasharray: none; stroke-linecap: butt; stroke-linejoin: miter; stroke-miterlimit: 10; fill: rgb(0,0,0); fill-rule: nonzero; opacity: 1;" transform=" matrix(1 0 0 1 0 0) " stroke-linecap="round" />
	<path d="M 86.392 39.684 H 53.924 c -1.992 0 -3.608 -1.615 -3.608 -3.608 V 3.608 C 50.316 1.615 51.932 0 53.924 0 h 32.468 C 88.385 0 90 1.615 90 3.608 v 32.468 C 90 38.068 88.385 39.684 86.392 39.684 z" style="stroke: none; stroke-width: 1; stroke-dasharray: none; stroke-linecap: butt; stroke-linejoin: miter; stroke-miterlimit: 10; fill: rgb(0,0,0); fill-rule: nonzero; opacity: 1;" transform=" matrix(1 0 0 1 0 0) " stroke-linecap="round" />
	<path d="M 36.076 90 H 3.608 C 1.615 90 0 88.385 0 86.392 V 53.924 c 0 -1.992 1.615 -3.608 3.608 -3.608 h 32.468 c 1.992 0 3.608 1.615 3.608 3.608 v 32.468 C 39.684 88.385 38.068 90 36.076 90 z" style="stroke: none; stroke-width: 1; stroke-dasharray: none; stroke-linecap: butt; stroke-linejoin: miter; stroke-miterlimit: 10; fill: rgb(0,0,0); fill-rule: nonzero; opacity: 1;" transform=" matrix(1 0 0 1 0 0) " stroke-linecap="round" />
	<path d="M 86.392 90 H 53.924 c -1.992 0 -3.608 -1.615 -3.608 -3.608 V 53.924 c 0 -1.992 1.615 -3.608 3.608 -3.608 h 32.468 c 1.992 0 3.608 1.615 3.608 3.608 v 32.468 C 90 88.385 88.385 90 86.392 90 z" style="stroke: none; stroke-width: 1; stroke-dasharray: none; stroke-linecap: butt; stroke-linejoin: miter; stroke-miterlimit: 10; fill: rgb(0,0,0); fill-rule: nonzero; opacity: 1;" transform=" matrix(1 0 0 1 0 0) " stroke-linecap="round" />
</g>
</svg>