<svg xmlns="http://www.w3.org/2000/svg" xmlns:xlink="http://www.w3.org/1999/xlink" version="1.1" width="256" height="256" viewBox="0 0 256 256" xml:space="preserve">

<defs>
</defs>
<g style="stroke: none; stroke-width: 0; stroke-dasharray: none; stroke-linecap: butt; stroke-linejoin: miter; stroke-miterlimit: 10; fill: none; fill-rule: nonzero; opacity: 1;" transform="translate(1.4065934065934016 1.4065934065934016) scale(2.81 2.81)" >
	<path d="M 45.036 33.372 c -1.365 0 -2.729 -0.631 -4.023 -1.893 c -0.396 -0.386 -0.404 -1.019 -0.019 -1.414 c 0.386 -0.396 1.019 -0.404 1.414 -0.019 c 1.814 1.769 3.441 1.768 5.271 -0.002 c 0.397 -0.384 1.03 -0.373 1.414 0.023 c 0.384 0.397 0.374 1.03 -0.023 1.414 C 47.767 32.742 46.4 33.372 45.036 33.372 z" style="stroke: none; stroke-width: 1; stroke-dasharray: none; stroke-linecap: butt; stroke-linejoin: miter; stroke-miterlimit: 10; fill: rgb(0,0,0); fill-rule: nonzero; opacity: 1;" transform=" matrix(1 0 0 1 0 0) " stroke-linecap="round" />
	<path d="M 65.132 47.858 l -7.451 -2.909 c -0.036 -0.027 -0.06 -0.064 -0.1 -0.087 c -0.136 -0.076 -0.281 -0.11 -0.426 -0.119 l -4.704 -1.837 v -5.536 c 0.333 -0.281 0.667 -0.561 0.979 -0.871 c 0.694 -0.687 1.332 -1.444 1.896 -2.251 c 0.562 -0.806 1.053 -1.667 1.46 -2.562 c 0.56 -1.232 0.956 -2.521 1.193 -3.848 c 1.512 -0.367 2.804 -2.007 3.258 -4.241 c 0.321 -1.58 0.185 -3.547 -0.873 -5.045 c 0.054 -0.011 0.113 -0.01 0.167 -0.022 c 0.407 -0.09 0.717 -0.424 0.774 -0.838 c 0.764 -5.448 -0.194 -9.756 -2.846 -12.805 C 54.945 0.848 49.315 0 45.212 0 c -5.483 0 -10.489 2.14 -13.39 5.726 c -2.792 3.451 -3.639 8.036 -2.551 13.618 c -0.923 1.266 -1.103 3.273 -0.429 5.309 c 0.644 1.944 1.882 3.316 3.389 3.808 c 0.767 3.474 2.654 6.582 5.319 8.856 v 5.591 l -12.683 4.951 c -5.241 2.047 -8.628 7.005 -8.628 12.631 v 22.164 c 0 2.489 2.025 4.515 4.515 4.515 h 18.313 c 0.552 0 1 -0.447 1 -1 s -0.448 -1 -1 -1 H 28.253 V 64.407 c 0 -0.553 -0.448 -1 -1 -1 s -1 0.447 -1 1 v 20.761 h -5.499 c -1.387 0 -2.515 -1.128 -2.515 -2.515 V 60.489 c 0 -4.797 2.887 -9.023 7.355 -10.768 l 7.021 -2.741 l 5.063 8.959 c 0.144 0.254 0.39 0.432 0.676 0.488 c 0.064 0.014 0.129 0.02 0.194 0.02 c 0.222 0 0.44 -0.074 0.617 -0.213 l 1.035 -0.812 l 0.934 2.239 c 0.1 0.24 0.291 0.417 0.519 0.519 L 38.08 80.982 c -0.042 0.268 0.026 0.541 0.189 0.758 l 5.933 7.862 c 0.023 0.03 0.058 0.042 0.084 0.069 c 0.039 0.041 0.065 0.091 0.112 0.126 c 0.035 0.027 0.076 0.038 0.114 0.06 c 0.034 0.019 0.065 0.038 0.101 0.053 C 44.738 89.964 44.867 90 44.999 90 c 0 0 0.001 0 0.001 0 s 0.001 0 0.001 0 c 0.132 0 0.261 -0.036 0.387 -0.089 c 0.036 -0.015 0.067 -0.034 0.101 -0.053 c 0.037 -0.021 0.078 -0.033 0.114 -0.06 c 0.047 -0.035 0.073 -0.085 0.112 -0.126 c 0.026 -0.027 0.061 -0.039 0.084 -0.069 l 5.932 -7.862 c 0.164 -0.217 0.232 -0.49 0.19 -0.758 L 48.345 58.18 c 0.228 -0.102 0.419 -0.279 0.519 -0.519 l 0.97 -2.327 l 1.148 0.901 c 0.178 0.139 0.396 0.213 0.617 0.213 c 0.064 0 0.13 -0.006 0.194 -0.02 c 0.286 -0.057 0.533 -0.234 0.677 -0.488 l 5.035 -8.911 l 6.9 2.694 c 4.468 1.745 7.355 5.972 7.355 10.768 v 22.164 c 0 1.387 -1.129 2.515 -2.516 2.515 H 62.84 V 64.407 c 0 -0.553 -0.447 -1 -1 -1 s -1 0.447 -1 1 v 20.761 h -9.39 c -0.553 0 -1 0.447 -1 1 s 0.447 1 1 1 h 17.795 c 2.49 0 4.516 -2.025 4.516 -4.515 V 60.489 C 73.761 54.863 70.374 49.905 65.132 47.858 z M 59.276 23.201 c -0.185 0.908 -0.578 1.709 -1.028 2.203 l 0.424 -5.743 C 59.416 20.648 59.516 22.021 59.276 23.201 z M 33.377 6.983 C 35.902 3.863 40.327 2 45.212 2 C 48.9 2 53.93 2.729 56.95 6.201 c 2.139 2.46 2.968 5.982 2.467 10.479 c -2.109 0.165 -4.591 -0.824 -5.832 -2.408 c -0.962 -1.227 -1.098 -2.645 -0.404 -4.22 c 0.048 -0.098 0.094 -0.196 0.138 -0.295 c 0.224 -0.497 0.007 -1.082 -0.486 -1.314 s -1.081 -0.027 -1.323 0.463 c -0.048 0.098 -0.095 0.197 -0.139 0.295 c -2.519 5.151 -10.357 8.78 -20.222 9.382 C 30.286 13.778 31.034 9.879 33.377 6.983 z M 30.829 20.599 c 0.216 -0.011 0.43 -0.024 0.644 -0.038 l 0.399 5.37 c -0.524 -0.518 -0.909 -1.233 -1.133 -1.907 C 30.303 22.703 30.352 21.34 30.829 20.599 z M 33.897 26.177 l -0.43 -5.783 c 7.644 -0.813 13.859 -3.374 17.442 -7.121 c 0.192 0.791 0.561 1.542 1.103 2.234 c 1.097 1.398 2.874 2.423 4.75 2.895 l -0.573 7.767 c -0.136 1.627 -0.548 3.206 -1.223 4.692 c -0.356 0.784 -0.787 1.539 -1.28 2.245 c -0.493 0.708 -1.053 1.372 -1.661 1.974 c -1.474 1.458 -3.21 2.554 -5.161 3.26 c -1.174 0.423 -2.467 0.423 -3.641 0 C 38.018 36.458 34.357 31.681 33.897 26.177 z M 42.542 40.22 c 0.806 0.292 1.653 0.437 2.5 0.437 c 0.847 0 1.695 -0.146 2.5 -0.437 c 1.026 -0.371 1.992 -0.847 2.908 -1.403 v 4.376 l -5.384 5.69 l -5.517 -5.696 v -4.417 C 40.485 39.346 41.484 39.838 42.542 40.22 z M 38.848 53.942 l -4.35 -7.697 l 3.796 -1.482 l 5.29 5.462 L 38.848 53.942 z M 45 87.339 l -4.879 -6.465 l 3.544 -22.598 H 45 h 1.335 l 3.544 22.598 L 45 87.339 z M 47.275 56.276 H 45 h -2.274 l -0.891 -2.135 l 3.24 -2.542 l 3.128 2.454 L 47.275 56.276 z M 51.302 53.942 l -4.746 -3.724 l 5.159 -5.452 l 3.909 1.526 L 51.302 53.942 z" style="stroke: none; stroke-width: 1; stroke-dasharray: none; stroke-linecap: butt; stroke-linejoin: miter; stroke-miterlimit: 10; fill: rgb(0,0,0); fill-rule: nonzero; opacity: 1;" transform=" matrix(1 0 0 1 0 0) " stroke-linecap="round" />
	<path d="M 38.744 23.774 c 1.256 -0.655 2.479 -0.655 3.736 0 c 0.489 0.256 1.094 0.065 1.349 -0.424 c 0.255 -0.49 0.065 -1.094 -0.424 -1.349 c -1.853 -0.967 -3.732 -0.966 -5.585 0 c -0.49 0.255 -0.68 0.859 -0.424 1.349 c 0.178 0.342 0.527 0.538 0.888 0.538 C 38.438 23.887 38.596 23.851 38.744 23.774 z" style="stroke: none; stroke-width: 1; stroke-dasharray: none; stroke-linecap: butt; stroke-linejoin: miter; stroke-miterlimit: 10; fill: rgb(0,0,0); fill-rule: nonzero; opacity: 1;" transform=" matrix(1 0 0 1 0 0) " stroke-linecap="round" />
	<path d="M 47.603 23.774 c 1.258 -0.654 2.479 -0.655 3.737 0 c 0.147 0.077 0.306 0.113 0.461 0.113 c 0.361 0 0.709 -0.196 0.888 -0.538 c 0.255 -0.49 0.065 -1.094 -0.425 -1.349 c -1.853 -0.966 -3.733 -0.965 -5.585 0 c -0.49 0.255 -0.68 0.859 -0.425 1.349 C 46.509 23.838 47.111 24.03 47.603 23.774 z" style="stroke: none; stroke-width: 1; stroke-dasharray: none; stroke-linecap: butt; stroke-linejoin: miter; stroke-miterlimit: 10; fill: rgb(0,0,0); fill-rule: nonzero; opacity: 1;" transform=" matrix(1 0 0 1 0 0) " stroke-linecap="round" />
</g>
</svg>