<svg xmlns="http://www.w3.org/2000/svg" xmlns:xlink="http://www.w3.org/1999/xlink" version="1.1" width="256" height="256" viewBox="0 0 256 256" xml:space="preserve">

<defs>
</defs>
<g style="stroke: none; stroke-width: 0; stroke-dasharray: none; stroke-linecap: butt; stroke-linejoin: miter; stroke-miterlimit: 10; fill: none; fill-rule: nonzero; opacity: 1;" transform="translate(1.4065934065934016 1.4065934065934016) scale(2.81 2.81)" >
	<path d="M 84.857 75.781 c -3.26 -4.052 -3.26 -8.336 0 -12.389 l 1.559 1.254 c -2.674 3.325 -2.674 6.557 0 9.881 L 84.857 75.781 z" style="stroke: none; stroke-width: 1; stroke-dasharray: none; stroke-linecap: butt; stroke-linejoin: miter; stroke-miterlimit: 10; fill: rgb(0,0,0); fill-rule: nonzero; opacity: 1;" transform=" matrix(1 0 0 1 0 0) " stroke-linecap="round" />
	<path d="M 72.66 26.608 c -3.261 -4.053 -3.261 -8.337 0 -12.39 l 1.559 1.254 c -2.675 3.325 -2.675 6.557 0 9.882 L 72.66 26.608 z" style="stroke: none; stroke-width: 1; stroke-dasharray: none; stroke-linecap: butt; stroke-linejoin: miter; stroke-miterlimit: 10; fill: rgb(0,0,0); fill-rule: nonzero; opacity: 1;" transform=" matrix(1 0 0 1 0 0) " stroke-linecap="round" />
	<path d="M 71.199 70.587 c -0.17 0 -0.341 -0.043 -0.493 -0.13 l -6.558 -3.721 l -6.558 3.721 c -0.309 0.176 -0.688 0.174 -0.996 -0.006 s -0.497 -0.509 -0.497 -0.864 V 45 c 0 -0.552 0.447 -1 1 -1 h 14.102 c 0.553 0 1 0.448 1 1 v 24.587 c 0 0.355 -0.189 0.685 -0.497 0.864 C 71.547 70.542 71.373 70.587 71.199 70.587 z M 64.148 64.587 c 0.17 0 0.341 0.043 0.493 0.13 l 5.558 3.153 V 46 H 58.098 v 21.87 l 5.558 -3.153 C 63.808 64.63 63.979 64.587 64.148 64.587 z" style="stroke: none; stroke-width: 1; stroke-dasharray: none; stroke-linecap: butt; stroke-linejoin: miter; stroke-miterlimit: 10; fill: rgb(0,0,0); fill-rule: nonzero; opacity: 1;" transform=" matrix(1 0 0 1 0 0) " stroke-linecap="round" />
	<path d="M 57.098 46 H 45 c -0.552 0 -1 -0.448 -1 -1 s 0.448 -1 1 -1 h 12.098 c 0.553 0 1 0.448 1 1 S 57.65 46 57.098 46 z" style="stroke: none; stroke-width: 1; stroke-dasharray: none; stroke-linecap: butt; stroke-linejoin: miter; stroke-miterlimit: 10; fill: rgb(0,0,0); fill-rule: nonzero; opacity: 1;" transform=" matrix(1 0 0 1 0 0) " stroke-linecap="round" />
	<path d="M 85.637 82.881 H 13.293 C 5.963 82.881 0 76.917 0 69.587 s 5.963 -13.293 13.293 -13.293 h 43.689 v 2 H 13.293 C 7.066 58.294 2 63.36 2 69.587 c 0 6.228 5.066 11.294 11.293 11.294 h 72.343 c 1.303 0 2.363 -1.061 2.363 -2.363 s -1.061 -2.363 -2.363 -2.363 H 13.293 c -3.622 0 -6.568 -2.946 -6.568 -6.567 s 2.946 -6.567 6.568 -6.567 h 43.804 v 2 H 13.293 c -2.519 0 -4.568 2.049 -4.568 4.567 s 2.049 4.567 4.568 4.567 h 72.343 c 2.406 0 4.363 1.957 4.363 4.363 S 88.043 82.881 85.637 82.881 z" style="stroke: none; stroke-width: 1; stroke-dasharray: none; stroke-linecap: butt; stroke-linejoin: miter; stroke-miterlimit: 10; fill: rgb(0,0,0); fill-rule: nonzero; opacity: 1;" transform=" matrix(1 0 0 1 0 0) " stroke-linecap="round" />
	<path d="M 85.637 65.02 H 71.199 v -2 h 14.438 c 1.303 0 2.363 -1.061 2.363 -2.363 s -1.061 -2.362 -2.363 -2.362 H 71.199 v -2 h 14.438 c 2.406 0 4.363 1.957 4.363 4.362 C 90 63.063 88.043 65.02 85.637 65.02 z" style="stroke: none; stroke-width: 1; stroke-dasharray: none; stroke-linecap: butt; stroke-linejoin: miter; stroke-miterlimit: 10; fill: rgb(0,0,0); fill-rule: nonzero; opacity: 1;" transform=" matrix(1 0 0 1 0 0) " stroke-linecap="round" />
	<path d="M 57.098 58.294 H 4.363 C 1.957 58.294 0 56.337 0 53.931 s 1.957 -4.363 4.363 -4.363 h 52.735 v 2 H 4.363 C 3.06 51.567 2 52.628 2 53.931 s 1.06 2.363 2.363 2.363 h 52.735 V 58.294 z" style="stroke: none; stroke-width: 1; stroke-dasharray: none; stroke-linecap: butt; stroke-linejoin: miter; stroke-miterlimit: 10; fill: rgb(0,0,0); fill-rule: nonzero; opacity: 1;" transform=" matrix(1 0 0 1 0 0) " stroke-linecap="round" />
	<path d="M 76.706 58.294 h -5.507 v -2 h 5.507 C 82.934 56.294 88 51.228 88 45 c 0 -6.227 -5.066 -11.293 -11.294 -11.293 H 4.363 C 3.06 33.707 2 34.767 2 36.069 s 1.06 2.363 2.363 2.363 h 72.343 c 3.622 0 6.568 2.946 6.568 6.568 c 0 3.621 -2.946 6.567 -6.568 6.567 h -5.507 v -2 h 5.507 c 2.519 0 4.568 -2.049 4.568 -4.567 s -2.05 -4.568 -4.568 -4.568 H 4.363 C 1.957 40.432 0 38.475 0 36.069 s 1.957 -4.363 4.363 -4.363 h 72.343 C 84.036 31.707 90 37.67 90 45 S 84.036 58.294 76.706 58.294 z" style="stroke: none; stroke-width: 1; stroke-dasharray: none; stroke-linecap: butt; stroke-linejoin: miter; stroke-miterlimit: 10; fill: rgb(0,0,0); fill-rule: nonzero; opacity: 1;" transform=" matrix(1 0 0 1 0 0) " stroke-linecap="round" />
	<path d="M 5.142 51.194 L 3.583 49.94 c 2.675 -3.324 2.675 -6.557 0 -9.881 l 1.559 -1.254 C 8.402 42.858 8.402 47.142 5.142 51.194 z" style="stroke: none; stroke-width: 1; stroke-dasharray: none; stroke-linecap: butt; stroke-linejoin: miter; stroke-miterlimit: 10; fill: rgb(0,0,0); fill-rule: nonzero; opacity: 1;" transform=" matrix(1 0 0 1 0 0) " stroke-linecap="round" />
	<path d="M 73.439 33.707 H 18.521 c -7.33 0 -13.293 -5.963 -13.293 -13.293 S 11.191 7.12 18.521 7.12 h 54.918 c 2.405 0 4.362 1.957 4.362 4.363 s -1.957 4.363 -4.362 4.363 H 18.521 c -2.519 0 -4.567 2.049 -4.567 4.568 s 2.049 4.568 4.567 4.568 h 54.918 c 2.405 0 4.362 1.957 4.362 4.363 S 75.845 33.707 73.439 33.707 z M 18.521 9.12 c -6.227 0 -11.293 5.066 -11.293 11.293 s 5.066 11.293 11.293 11.293 h 54.918 c 1.303 0 2.362 -1.06 2.362 -2.363 s -1.06 -2.363 -2.362 -2.363 H 18.521 c -3.621 0 -6.567 -2.946 -6.567 -6.568 s 2.946 -6.568 6.567 -6.568 h 54.918 c 1.303 0 2.362 -1.06 2.362 -2.363 s -1.06 -2.363 -2.362 -2.363 H 18.521 z" style="stroke: none; stroke-width: 1; stroke-dasharray: none; stroke-linecap: butt; stroke-linejoin: miter; stroke-miterlimit: 10; fill: rgb(0,0,0); fill-rule: nonzero; opacity: 1;" transform=" matrix(1 0 0 1 0 0) " stroke-linecap="round" />
</g>
</svg>