<svg xmlns="http://www.w3.org/2000/svg" xmlns:xlink="http://www.w3.org/1999/xlink" version="1.1" width="256" height="256" viewBox="0 0 256 256" xml:space="preserve">

<defs>
</defs>
<g style="stroke: none; stroke-width: 0; stroke-dasharray: none; stroke-linecap: butt; stroke-linejoin: miter; stroke-miterlimit: 10; fill: none; fill-rule: nonzero; opacity: 1;" transform="translate(1.4065934065934016 1.4065934065934016) scale(2.81 2.81)" >
	<rect x="52.33" y="74.63" rx="0" ry="0" width="17.68" height="2" style="stroke: none; stroke-width: 1; stroke-dasharray: none; stroke-linecap: butt; stroke-linejoin: miter; stroke-miterlimit: 10; fill: rgb(0,0,0); fill-rule: nonzero; opacity: 1;" transform=" matrix(0.9924 -0.1231 0.1231 0.9924 -8.8431 8.1028) "/>
	<rect x="53.89" y="67.74" rx="0" ry="0" width="15.15" height="2" style="stroke: none; stroke-width: 1; stroke-dasharray: none; stroke-linecap: butt; stroke-linejoin: miter; stroke-miterlimit: 10; fill: rgb(0,0,0); fill-rule: nonzero; opacity: 1;" transform=" matrix(0.9924 -0.1231 0.1231 0.9924 -7.9925 8.0874) "/>
	<path d="M 77.174 77.033 l -5.197 -41.895 c -0.161 -1.305 -0.822 -2.469 -1.859 -3.277 c -1.036 -0.808 -2.325 -1.167 -3.631 -1.002 l -12.753 1.582 c -3.045 -6.36 -4.564 -14.512 -4.734 -25.132 c 0.572 -0.111 1.114 -0.351 1.584 -0.722 c 0.774 -0.611 1.264 -1.487 1.378 -2.466 c 0.115 -0.979 -0.158 -1.944 -0.769 -2.718 c -0.611 -0.773 -1.487 -1.263 -2.467 -1.378 c -0.975 -0.113 -1.943 0.158 -2.717 0.769 c -0.774 0.611 -1.264 1.487 -1.378 2.466 c -0.115 0.979 0.158 1.944 0.769 2.718 c 0.239 0.302 0.527 0.547 0.837 0.757 c -4.275 4.552 -7.222 9.431 -8.911 14.758 c -1.226 -0.05 -2.417 0.392 -3.313 1.249 L 21.315 34.887 c -2.161 2.067 -3.543 4.841 -3.892 7.811 l -4.604 39.18 c -0.141 1.202 0.194 2.389 0.945 3.339 c 0.751 0.951 1.827 1.552 3.03 1.693 l 26.04 3.06 C 43.014 89.99 43.193 90 43.371 90 c 1.015 0 1.993 -0.338 2.802 -0.977 c 0.951 -0.75 1.552 -1.826 1.693 -3.029 l 0.129 -1.095 c 0.62 0.276 1.29 0.429 1.982 0.429 c 0.205 0 0.411 -0.013 0.618 -0.038 l 22.301 -2.767 C 75.589 82.189 77.508 79.727 77.174 77.033 z M 40.956 23.558 c -0.424 -0.657 -1.011 -1.162 -1.681 -1.519 c 1.516 -4.737 4.066 -9.115 7.752 -13.213 c 0.281 9.883 1.782 17.648 4.628 23.875 l -4.434 0.55 L 40.956 23.558 z M 46.617 3.494 c 0.052 -0.449 0.276 -0.85 0.631 -1.13 C 47.549 2.126 47.914 2 48.292 2 c 0.066 0 0.134 0.004 0.201 0.012 c 0.448 0.053 0.85 0.277 1.13 0.631 c 0.279 0.354 0.404 0.796 0.352 1.245 v 0.001 c -0.053 0.448 -0.276 0.85 -0.631 1.129 c -0.354 0.28 -0.791 0.405 -1.246 0.353 c -0.448 -0.053 -0.849 -0.277 -1.129 -0.631 C 46.689 4.384 46.564 3.942 46.617 3.494 z M 36.505 29.79 c 0.065 0 0.132 0.004 0.198 0.012 c 0.926 0.109 1.591 0.951 1.482 1.876 c -0.109 0.926 -0.95 1.595 -1.876 1.482 c -0.448 -0.053 -0.85 -0.277 -1.129 -0.631 c -0.28 -0.354 -0.405 -0.797 -0.353 -1.245 C 34.928 30.425 35.66 29.79 36.505 29.79 z M 22.698 36.332 l 12.698 -12.145 c 0.377 -0.361 0.849 -0.585 1.351 -0.665 c -0.356 1.411 -0.626 2.854 -0.814 4.33 c -1.591 0.253 -2.895 1.521 -3.093 3.198 c -0.115 0.979 0.158 1.944 0.769 2.718 c 0.611 0.774 1.487 1.264 2.466 1.378 c 0.146 0.017 0.29 0.025 0.433 0.025 c 1.844 0 3.443 -1.385 3.663 -3.26 c 0.196 -1.667 -0.766 -3.194 -2.239 -3.816 c 0.177 -1.384 0.429 -2.74 0.763 -4.065 c 0.221 0.173 0.424 0.371 0.581 0.613 L 48.814 39.4 c 1.371 2.122 1.963 4.673 1.669 7.182 l -0.017 0.147 L 19.39 43.094 l 0.019 -0.163 C 19.704 40.422 20.872 38.078 22.698 36.332 z M 45.88 85.762 c -0.163 1.387 -1.421 2.383 -2.813 2.221 l -26.04 -3.06 c -0.672 -0.079 -1.274 -0.415 -1.693 -0.946 s -0.607 -1.194 -0.528 -1.867 l 4.351 -37.029 l 31.076 3.635 L 45.88 85.762 z M 72.649 80.539 l -22.301 2.767 c -0.76 0.09 -1.499 -0.123 -2.099 -0.573 l 4.22 -35.918 c 0.349 -2.969 -0.354 -5.987 -1.976 -8.5 l -2.068 -3.2 l 4.162 -0.516 c 0.405 0.765 0.832 1.506 1.283 2.223 c -0.887 0.578 -1.529 1.518 -1.662 2.65 c -0.236 2.021 1.215 3.858 3.235 4.096 c 0.146 0.017 0.292 0.026 0.438 0.026 c 0.826 0 1.623 -0.275 2.28 -0.795 c 0.773 -0.611 1.263 -1.486 1.378 -2.465 c 0.115 -0.979 -0.157 -1.945 -0.769 -2.719 c -0.611 -0.773 -1.487 -1.263 -2.467 -1.378 c -0.147 -0.017 -0.29 -0.007 -0.435 -0.007 c -0.401 -0.612 -0.783 -1.244 -1.148 -1.895 l 12.01 -1.49 c 0.774 -0.096 1.541 0.116 2.156 0.595 c 0.615 0.48 1.007 1.171 1.104 1.945 l 5.197 41.895 C 75.388 78.878 74.248 80.341 72.649 80.539 z M 54.195 39.705 c 0.102 -0.859 0.833 -1.494 1.678 -1.494 c 0.065 0 0.132 0.004 0.199 0.012 c 0.448 0.053 0.85 0.277 1.13 0.631 c 0.279 0.354 0.404 0.796 0.352 1.245 V 40.1 c -0.053 0.448 -0.276 0.849 -0.631 1.129 s -0.794 0.405 -1.246 0.352 C 54.752 41.472 54.087 40.63 54.195 39.705 z" style="stroke: none; stroke-width: 1; stroke-dasharray: none; stroke-linecap: butt; stroke-linejoin: miter; stroke-miterlimit: 10; fill: rgb(0,0,0); fill-rule: nonzero; opacity: 1;" transform=" matrix(1 0 0 1 0 0) " stroke-linecap="round" />
	<rect x="57.26" y="60.73" rx="0" ry="0" width="10.79" height="2" style="stroke: none; stroke-width: 1; stroke-dasharray: none; stroke-linecap: butt; stroke-linejoin: miter; stroke-miterlimit: 10; fill: rgb(0,0,0); fill-rule: nonzero; opacity: 1;" transform=" matrix(0.9924 -0.1231 0.1231 0.9924 -7.1213 8.181) "/>
	<path d="M 36.297 79.59 c -0.186 0 -0.373 -0.012 -0.562 -0.035 c -2.514 -0.309 -4.307 -2.604 -3.999 -5.118 c 0.149 -1.218 0.764 -2.304 1.731 -3.06 c 0.967 -0.755 2.172 -1.089 3.387 -0.938 c 2.514 0.309 4.308 2.604 3.999 5.118 C 40.567 77.881 38.582 79.59 36.297 79.59 z M 36.288 72.403 c -0.575 0 -1.13 0.19 -1.59 0.55 c -0.546 0.427 -0.893 1.04 -0.977 1.728 c -0.174 1.419 0.838 2.715 2.257 2.89 c 1.418 0.17 2.714 -0.839 2.889 -2.258 c 0.175 -1.419 -0.838 -2.715 -2.257 -2.89 C 36.502 72.41 36.395 72.403 36.288 72.403 z" style="stroke: none; stroke-width: 1; stroke-dasharray: none; stroke-linecap: butt; stroke-linejoin: miter; stroke-miterlimit: 10; fill: rgb(0,0,0); fill-rule: nonzero; opacity: 1;" transform=" matrix(1 0 0 1 0 0) " stroke-linecap="round" />
	<path d="M 27.716 68.597 c -0.189 0 -0.379 -0.012 -0.57 -0.035 c -2.514 -0.309 -4.308 -2.604 -3.999 -5.118 c 0.309 -2.513 2.605 -4.313 5.118 -3.998 c 2.514 0.309 4.307 2.604 3.999 5.118 c -0.149 1.218 -0.764 2.304 -1.731 3.06 C 29.718 68.26 28.734 68.597 27.716 68.597 z M 27.705 61.41 c -1.29 0 -2.411 0.965 -2.572 2.277 l 0 0 c -0.175 1.419 0.838 2.715 2.257 2.89 c 0.686 0.081 1.366 -0.104 1.912 -0.53 c 0.546 -0.427 0.893 -1.04 0.977 -1.728 c 0.174 -1.419 -0.838 -2.715 -2.257 -2.89 C 27.915 61.417 27.809 61.41 27.705 61.41 z M 24.14 63.565 h 0.01 H 24.14 z" style="stroke: none; stroke-width: 1; stroke-dasharray: none; stroke-linecap: butt; stroke-linejoin: miter; stroke-miterlimit: 10; fill: rgb(0,0,0); fill-rule: nonzero; opacity: 1;" transform=" matrix(1 0 0 1 0 0) " stroke-linecap="round" />
	<path d="M 22.5 77.922 c -0.297 0 -0.591 -0.132 -0.789 -0.385 c -0.34 -0.435 -0.263 -1.063 0.172 -1.403 l 19 -14.844 c 0.435 -0.34 1.063 -0.264 1.404 0.173 c 0.34 0.435 0.263 1.063 -0.172 1.403 l -19 14.844 C 22.933 77.853 22.716 77.922 22.5 77.922 z" style="stroke: none; stroke-width: 1; stroke-dasharray: none; stroke-linecap: butt; stroke-linejoin: miter; stroke-miterlimit: 10; fill: rgb(0,0,0); fill-rule: nonzero; opacity: 1;" transform=" matrix(1 0 0 1 0 0) " stroke-linecap="round" />
</g>
</svg>