<svg xmlns="http://www.w3.org/2000/svg" xmlns:xlink="http://www.w3.org/1999/xlink" version="1.1" width="256" height="256" viewBox="0 0 256 256" xml:space="preserve">

<defs>
</defs>
<g style="stroke: none; stroke-width: 0; stroke-dasharray: none; stroke-linecap: butt; stroke-linejoin: miter; stroke-miterlimit: 10; fill: none; fill-rule: nonzero; opacity: 1;" transform="translate(1.4065934065934016 1.4065934065934016) scale(2.81 2.81)" >
	<path d="M 58.652 89.881 H 17.443 c -3.458 0 -6.272 -2.813 -6.272 -6.271 V 6.272 C 11.172 2.813 13.985 0 17.443 0 h 54.995 c 3.458 0 6.272 2.813 6.272 6.272 v 65.124 c 0 0.552 -0.447 0.999 -0.999 0.999 c -0.552 0 -0.999 -0.447 -0.999 -0.999 V 6.272 c 0 -2.357 -1.917 -4.274 -4.275 -4.274 H 17.443 c -2.357 0 -4.274 1.917 -4.274 4.274 V 83.61 c 0 2.356 1.917 4.274 4.274 4.274 h 41.208 c 0.552 0 0.999 0.447 0.999 0.999 C 59.65 89.434 59.204 89.881 58.652 89.881 z" style="stroke: none; stroke-width: 1; stroke-dasharray: none; stroke-linecap: butt; stroke-linejoin: miter; stroke-miterlimit: 10; fill: rgb(0,0,0); fill-rule: nonzero; opacity: 1;" transform=" matrix(1 0 0 1 0 0) " stroke-linecap="round" />
	<path d="M 71.186 90 c -1.234 0 -2.393 -0.481 -3.265 -1.353 L 53.234 73.961 c -0.931 -0.931 -1.628 -2.091 -2.014 -3.354 l -2.353 -7.702 c -0.25 -0.812 -0.03 -1.692 0.572 -2.294 s 1.48 -0.822 2.297 -0.572 l 7.701 2.353 c 1.261 0.384 2.42 1.081 3.353 2.014 l 14.687 14.687 c 0.872 0.872 1.353 2.032 1.353 3.265 c 0 1.234 -0.481 2.393 -1.353 3.265 l -3.024 3.024 C 73.579 89.519 72.42 90 71.186 90 z M 51.057 61.933 c -0.099 0 -0.17 0.053 -0.207 0.09 c -0.058 0.058 -0.117 0.156 -0.074 0.297 l 2.353 7.703 c 0.291 0.95 0.815 1.824 1.517 2.525 l 14.687 14.687 c 1.022 1.022 2.684 1.022 3.706 0 l 3.024 -3.024 c 1.022 -1.022 1.022 -2.684 0 -3.706 L 61.377 65.818 c -0.702 -0.702 -1.575 -1.227 -2.524 -1.517 l -7.702 -2.353 C 51.117 61.938 51.085 61.933 51.057 61.933 z" style="stroke: none; stroke-width: 1; stroke-dasharray: none; stroke-linecap: butt; stroke-linejoin: miter; stroke-miterlimit: 10; fill: rgb(0,0,0); fill-rule: nonzero; opacity: 1;" transform=" matrix(1 0 0 1 0 0) " stroke-linecap="round" />
	<path d="M 65.574 85.887 c -0.256 0 -0.511 -0.098 -0.706 -0.293 c -0.39 -0.39 -0.39 -1.022 0 -1.412 l 8.143 -8.143 c 0.39 -0.39 1.022 -0.39 1.412 0 c 0.39 0.39 0.39 1.022 0 1.412 l -8.143 8.143 C 66.085 85.79 65.83 85.887 65.574 85.887 z" style="stroke: none; stroke-width: 1; stroke-dasharray: none; stroke-linecap: butt; stroke-linejoin: miter; stroke-miterlimit: 10; fill: rgb(0,0,0); fill-rule: nonzero; opacity: 1;" transform=" matrix(1 0 0 1 0 0) " stroke-linecap="round" />
	<path d="M 65.585 39.236 H 24.296 c -0.552 0 -0.999 -0.447 -0.999 -0.999 s 0.447 -0.999 0.999 -0.999 h 41.289 c 0.552 0 0.999 0.447 0.999 0.999 S 66.137 39.236 65.585 39.236 z" style="stroke: none; stroke-width: 1; stroke-dasharray: none; stroke-linecap: butt; stroke-linejoin: miter; stroke-miterlimit: 10; fill: rgb(0,0,0); fill-rule: nonzero; opacity: 1;" transform=" matrix(1 0 0 1 0 0) " stroke-linecap="round" />
	<path d="M 29.633 51.153 h -5.337 c -0.552 0 -0.999 -0.447 -0.999 -0.999 s 0.447 -0.999 0.999 -0.999 h 5.337 c 0.552 0 0.999 0.447 0.999 0.999 S 30.184 51.153 29.633 51.153 z" style="stroke: none; stroke-width: 1; stroke-dasharray: none; stroke-linecap: butt; stroke-linejoin: miter; stroke-miterlimit: 10; fill: rgb(0,0,0); fill-rule: nonzero; opacity: 1;" transform=" matrix(1 0 0 1 0 0) " stroke-linecap="round" />
	<path d="M 38.79 63.07 H 24.296 c -0.552 0 -0.999 -0.447 -0.999 -0.999 s 0.447 -0.999 0.999 -0.999 H 38.79 c 0.552 0 0.999 0.447 0.999 0.999 S 39.342 63.07 38.79 63.07 z" style="stroke: none; stroke-width: 1; stroke-dasharray: none; stroke-linecap: butt; stroke-linejoin: miter; stroke-miterlimit: 10; fill: rgb(0,0,0); fill-rule: nonzero; opacity: 1;" transform=" matrix(1 0 0 1 0 0) " stroke-linecap="round" />
	<path d="M 65.585 27.32 H 50.262 c -0.552 0 -0.999 -0.447 -0.999 -0.999 s 0.447 -0.999 0.999 -0.999 h 15.323 c 0.552 0 0.999 0.447 0.999 0.999 S 66.137 27.32 65.585 27.32 z" style="stroke: none; stroke-width: 1; stroke-dasharray: none; stroke-linecap: butt; stroke-linejoin: miter; stroke-miterlimit: 10; fill: rgb(0,0,0); fill-rule: nonzero; opacity: 1;" transform=" matrix(1 0 0 1 0 0) " stroke-linecap="round" />
	<path d="M 65.585 16.148 H 24.296 c -0.552 0 -0.999 -0.447 -0.999 -0.999 c 0 -0.552 0.447 -0.999 0.999 -0.999 h 41.289 c 0.552 0 0.999 0.447 0.999 0.999 C 66.584 15.701 66.137 16.148 65.585 16.148 z" style="stroke: none; stroke-width: 1; stroke-dasharray: none; stroke-linecap: butt; stroke-linejoin: miter; stroke-miterlimit: 10; fill: rgb(0,0,0); fill-rule: nonzero; opacity: 1;" transform=" matrix(1 0 0 1 0 0) " stroke-linecap="round" />
	<path d="M 53.264 73.404 c -0.256 0 -0.511 -0.098 -0.706 -0.293 c -0.39 -0.39 -0.39 -1.022 0 -1.412 l 7.996 -7.996 c 0.39 -0.39 1.022 -0.39 1.412 0 c 0.39 0.39 0.39 1.022 0 1.412 l -7.996 7.996 C 53.775 73.306 53.52 73.404 53.264 73.404 z" style="stroke: none; stroke-width: 1; stroke-dasharray: none; stroke-linecap: butt; stroke-linejoin: miter; stroke-miterlimit: 10; fill: rgb(0,0,0); fill-rule: nonzero; opacity: 1;" transform=" matrix(1 0 0 1 0 0) " stroke-linecap="round" />
	<path d="M 40.618 27.32 H 24.296 c -0.552 0 -0.999 -0.447 -0.999 -0.999 s 0.447 -0.999 0.999 -0.999 h 16.322 c 0.552 0 0.999 0.447 0.999 0.999 S 41.17 27.32 40.618 27.32 z" style="stroke: none; stroke-width: 1; stroke-dasharray: none; stroke-linecap: butt; stroke-linejoin: miter; stroke-miterlimit: 10; fill: rgb(0,0,0); fill-rule: nonzero; opacity: 1;" transform=" matrix(1 0 0 1 0 0) " stroke-linecap="round" />
	<path d="M 65.585 51.153 H 39.276 c -0.552 0 -0.999 -0.447 -0.999 -0.999 s 0.447 -0.999 0.999 -0.999 h 26.309 c 0.552 0 0.999 0.447 0.999 0.999 S 66.137 51.153 65.585 51.153 z" style="stroke: none; stroke-width: 1; stroke-dasharray: none; stroke-linecap: butt; stroke-linejoin: miter; stroke-miterlimit: 10; fill: rgb(0,0,0); fill-rule: nonzero; opacity: 1;" transform=" matrix(1 0 0 1 0 0) " stroke-linecap="round" />
</g>
</svg>