<svg xmlns="http://www.w3.org/2000/svg" xmlns:xlink="http://www.w3.org/1999/xlink" version="1.1" width="256" height="256" viewBox="0 0 256 256" xml:space="preserve">

<defs>
</defs>
<g style="stroke: none; stroke-width: 0; stroke-dasharray: none; stroke-linecap: butt; stroke-linejoin: miter; stroke-miterlimit: 10; fill: none; fill-rule: nonzero; opacity: 1;" transform="translate(1.4065934065934016 1.4065934065934016) scale(2.81 2.81)" >
	<path d="M 84.114 85.253 V 18.509 H 59.038 V 1.885 H 30.962 v 16.625 H 5.886 v 66.744 H 0 v 3 h 38.314 h 13.371 H 90 v -3 H 84.114 z M 81.114 21.509 v 63.744 H 59.038 V 21.509 H 81.114 z M 8.886 21.509 h 22.076 v 63.744 H 8.886 V 21.509 z M 41.314 85.253 V 65.981 c 0 -2.032 1.653 -3.686 3.686 -3.686 s 3.686 1.653 3.686 3.686 v 19.271 H 41.314 z M 45 59.296 c -3.687 0 -6.686 2.999 -6.686 6.686 v 19.271 h -4.353 V 18.509 V 4.885 h 22.076 v 13.625 v 66.744 h -4.353 V 65.981 C 51.686 62.295 48.687 59.296 45 59.296 z" style="stroke: none; stroke-width: 1; stroke-dasharray: none; stroke-linecap: butt; stroke-linejoin: miter; stroke-miterlimit: 10; fill: rgb(0,0,0); fill-rule: nonzero; opacity: 1;" transform=" matrix(1 0 0 1 0 0) " stroke-linecap="round" />
	<path d="M 51.686 8.138 H 38.314 v 13.372 h 13.371 V 8.138 z M 48.686 18.509 h -7.371 v -7.372 h 7.371 V 18.509 z" style="stroke: none; stroke-width: 1; stroke-dasharray: none; stroke-linecap: butt; stroke-linejoin: miter; stroke-miterlimit: 10; fill: rgb(0,0,0); fill-rule: nonzero; opacity: 1;" transform=" matrix(1 0 0 1 0 0) " stroke-linecap="round" />
	<path d="M 51.686 25.19 H 38.314 v 13.372 h 13.371 V 25.19 z M 48.686 35.562 h -7.371 V 28.19 h 7.371 V 35.562 z" style="stroke: none; stroke-width: 1; stroke-dasharray: none; stroke-linecap: butt; stroke-linejoin: miter; stroke-miterlimit: 10; fill: rgb(0,0,0); fill-rule: nonzero; opacity: 1;" transform=" matrix(1 0 0 1 0 0) " stroke-linecap="round" />
	<path d="M 51.686 42.243 H 38.314 v 13.371 h 13.371 V 42.243 z M 48.686 52.614 h -7.371 v -7.371 h 7.371 V 52.614 z" style="stroke: none; stroke-width: 1; stroke-dasharray: none; stroke-linecap: butt; stroke-linejoin: miter; stroke-miterlimit: 10; fill: rgb(0,0,0); fill-rule: nonzero; opacity: 1;" transform=" matrix(1 0 0 1 0 0) " stroke-linecap="round" />
	<path d="M 76.762 25.19 H 63.391 v 13.372 h 13.371 V 25.19 z M 73.762 35.562 h -7.371 V 28.19 h 7.371 V 35.562 z" style="stroke: none; stroke-width: 1; stroke-dasharray: none; stroke-linecap: butt; stroke-linejoin: miter; stroke-miterlimit: 10; fill: rgb(0,0,0); fill-rule: nonzero; opacity: 1;" transform=" matrix(1 0 0 1 0 0) " stroke-linecap="round" />
	<path d="M 76.762 42.243 H 63.391 v 13.371 h 13.371 V 42.243 z M 73.762 52.614 h -7.371 v -7.371 h 7.371 V 52.614 z" style="stroke: none; stroke-width: 1; stroke-dasharray: none; stroke-linecap: butt; stroke-linejoin: miter; stroke-miterlimit: 10; fill: rgb(0,0,0); fill-rule: nonzero; opacity: 1;" transform=" matrix(1 0 0 1 0 0) " stroke-linecap="round" />
	<path d="M 76.762 59.296 H 63.391 v 13.371 h 13.371 V 59.296 z M 73.762 69.667 h -7.371 v -7.371 h 7.371 V 69.667 z" style="stroke: none; stroke-width: 1; stroke-dasharray: none; stroke-linecap: butt; stroke-linejoin: miter; stroke-miterlimit: 10; fill: rgb(0,0,0); fill-rule: nonzero; opacity: 1;" transform=" matrix(1 0 0 1 0 0) " stroke-linecap="round" />
	<path d="M 13.238 25.19 v 13.372 H 26.61 V 25.19 H 13.238 z M 23.61 35.562 h -7.372 V 28.19 h 7.372 V 35.562 z" style="stroke: none; stroke-width: 1; stroke-dasharray: none; stroke-linecap: butt; stroke-linejoin: miter; stroke-miterlimit: 10; fill: rgb(0,0,0); fill-rule: nonzero; opacity: 1;" transform=" matrix(1 0 0 1 0 0) " stroke-linecap="round" />
	<path d="M 13.238 55.614 H 26.61 V 42.243 H 13.238 V 55.614 z M 16.238 45.243 h 7.372 v 7.371 h -7.372 V 45.243 z" style="stroke: none; stroke-width: 1; stroke-dasharray: none; stroke-linecap: butt; stroke-linejoin: miter; stroke-miterlimit: 10; fill: rgb(0,0,0); fill-rule: nonzero; opacity: 1;" transform=" matrix(1 0 0 1 0 0) " stroke-linecap="round" />
	<path d="M 13.238 72.667 H 26.61 V 59.296 H 13.238 V 72.667 z M 16.238 62.296 h 7.372 v 7.371 h -7.372 V 62.296 z" style="stroke: none; stroke-width: 1; stroke-dasharray: none; stroke-linecap: butt; stroke-linejoin: miter; stroke-miterlimit: 10; fill: rgb(0,0,0); fill-rule: nonzero; opacity: 1;" transform=" matrix(1 0 0 1 0 0) " stroke-linecap="round" />
</g>
</svg>