<svg xmlns="http://www.w3.org/2000/svg" xmlns:xlink="http://www.w3.org/1999/xlink" version="1.1" width="256" height="256" viewBox="0 0 256 256" xml:space="preserve">

<defs>
</defs>
<g style="stroke: none; stroke-width: 0; stroke-dasharray: none; stroke-linecap: butt; stroke-linejoin: miter; stroke-miterlimit: 10; fill: none; fill-rule: nonzero; opacity: 1;" transform="translate(1.4065934065934016 1.4065934065934016) scale(2.81 2.81)" >
	<polygon points="51.69,13.32 46.5,13.32 46.5,8.14 43.5,8.14 43.5,13.32 38.31,13.32 38.31,16.32 43.5,16.32 43.5,21.51 46.5,21.51 46.5,16.32 51.69,16.32 " style="stroke: none; stroke-width: 1; stroke-dasharray: none; stroke-linecap: butt; stroke-linejoin: miter; stroke-miterlimit: 10; fill: rgb(0,0,0); fill-rule: nonzero; opacity: 1;" transform="  matrix(1 0 0 1 0 0) "/>
	<path d="M 84.114 85.185 V 18.44 H 59.038 V 1.816 H 30.962 V 18.44 H 5.886 v 66.744 H 0 v 3 h 38.314 h 13.371 H 90 v -3 H 84.114 z M 81.114 21.44 v 63.744 H 59.038 V 21.44 H 81.114 z M 8.886 21.44 h 22.076 v 63.744 H 8.886 V 21.44 z M 41.314 85.185 V 65.912 c 0 -2.032 1.653 -3.686 3.686 -3.686 s 3.686 1.653 3.686 3.686 v 19.272 H 41.314 z M 45 59.227 c -3.687 0 -6.686 2.999 -6.686 6.686 v 19.272 h -4.353 V 18.44 V 4.816 h 22.076 V 18.44 v 66.744 h -4.353 V 65.912 C 51.686 62.226 48.687 59.227 45 59.227 z" style="stroke: none; stroke-width: 1; stroke-dasharray: none; stroke-linecap: butt; stroke-linejoin: miter; stroke-miterlimit: 10; fill: rgb(0,0,0); fill-rule: nonzero; opacity: 1;" transform=" matrix(1 0 0 1 0 0) " stroke-linecap="round" />
	<path d="M 51.686 25.122 H 38.314 v 13.372 h 13.371 V 25.122 z M 48.686 35.493 h -7.371 v -7.372 h 7.371 V 35.493 z" style="stroke: none; stroke-width: 1; stroke-dasharray: none; stroke-linecap: butt; stroke-linejoin: miter; stroke-miterlimit: 10; fill: rgb(0,0,0); fill-rule: nonzero; opacity: 1;" transform=" matrix(1 0 0 1 0 0) " stroke-linecap="round" />
	<path d="M 51.686 42.174 H 38.314 v 13.372 h 13.371 V 42.174 z M 48.686 52.546 h -7.371 v -7.372 h 7.371 V 52.546 z" style="stroke: none; stroke-width: 1; stroke-dasharray: none; stroke-linecap: butt; stroke-linejoin: miter; stroke-miterlimit: 10; fill: rgb(0,0,0); fill-rule: nonzero; opacity: 1;" transform=" matrix(1 0 0 1 0 0) " stroke-linecap="round" />
	<path d="M 76.762 25.122 H 63.391 v 13.372 h 13.371 V 25.122 z M 73.762 35.493 h -7.371 v -7.372 h 7.371 V 35.493 z" style="stroke: none; stroke-width: 1; stroke-dasharray: none; stroke-linecap: butt; stroke-linejoin: miter; stroke-miterlimit: 10; fill: rgb(0,0,0); fill-rule: nonzero; opacity: 1;" transform=" matrix(1 0 0 1 0 0) " stroke-linecap="round" />
	<path d="M 76.762 42.174 H 63.391 v 13.372 h 13.371 V 42.174 z M 73.762 52.546 h -7.371 v -7.372 h 7.371 V 52.546 z" style="stroke: none; stroke-width: 1; stroke-dasharray: none; stroke-linecap: butt; stroke-linejoin: miter; stroke-miterlimit: 10; fill: rgb(0,0,0); fill-rule: nonzero; opacity: 1;" transform=" matrix(1 0 0 1 0 0) " stroke-linecap="round" />
	<path d="M 76.762 59.227 H 63.391 v 13.372 h 13.371 V 59.227 z M 73.762 69.599 h -7.371 v -7.372 h 7.371 V 69.599 z" style="stroke: none; stroke-width: 1; stroke-dasharray: none; stroke-linecap: butt; stroke-linejoin: miter; stroke-miterlimit: 10; fill: rgb(0,0,0); fill-rule: nonzero; opacity: 1;" transform=" matrix(1 0 0 1 0 0) " stroke-linecap="round" />
	<path d="M 13.238 25.122 v 13.372 H 26.61 V 25.122 H 13.238 z M 23.61 35.493 h -7.372 v -7.372 h 7.372 V 35.493 z" style="stroke: none; stroke-width: 1; stroke-dasharray: none; stroke-linecap: butt; stroke-linejoin: miter; stroke-miterlimit: 10; fill: rgb(0,0,0); fill-rule: nonzero; opacity: 1;" transform=" matrix(1 0 0 1 0 0) " stroke-linecap="round" />
	<path d="M 13.238 55.546 H 26.61 V 42.174 H 13.238 V 55.546 z M 16.238 45.174 h 7.372 v 7.372 h -7.372 V 45.174 z" style="stroke: none; stroke-width: 1; stroke-dasharray: none; stroke-linecap: butt; stroke-linejoin: miter; stroke-miterlimit: 10; fill: rgb(0,0,0); fill-rule: nonzero; opacity: 1;" transform=" matrix(1 0 0 1 0 0) " stroke-linecap="round" />
	<path d="M 13.238 72.599 H 26.61 V 59.227 H 13.238 V 72.599 z M 16.238 62.227 h 7.372 v 7.372 h -7.372 V 62.227 z" style="stroke: none; stroke-width: 1; stroke-dasharray: none; stroke-linecap: butt; stroke-linejoin: miter; stroke-miterlimit: 10; fill: rgb(0,0,0); fill-rule: nonzero; opacity: 1;" transform=" matrix(1 0 0 1 0 0) " stroke-linecap="round" />
</g>
</svg>