<svg xmlns="http://www.w3.org/2000/svg" xmlns:xlink="http://www.w3.org/1999/xlink" version="1.1" width="256" height="256" viewBox="0 0 256 256" xml:space="preserve">

<defs>
</defs>
<g style="stroke: none; stroke-width: 0; stroke-dasharray: none; stroke-linecap: butt; stroke-linejoin: miter; stroke-miterlimit: 10; fill: none; fill-rule: nonzero; opacity: 1;" transform="translate(1.4065934065934016 1.4065934065934016) scale(2.81 2.81)" >
	<path d="M 32.901 41.045 H 8.144 C 3.653 41.045 0 37.392 0 32.901 V 8.144 C 0 3.653 3.653 0 8.144 0 h 24.757 c 4.491 0 8.145 3.653 8.145 8.144 v 24.757 C 41.045 37.392 37.392 41.045 32.901 41.045 z M 8.144 6 C 6.962 6 6 6.962 6 8.144 v 24.757 c 0 1.183 0.962 2.145 2.144 2.145 h 24.757 c 1.183 0 2.145 -0.962 2.145 -2.145 V 8.144 C 35.045 6.962 34.083 6 32.901 6 H 8.144 z" style="stroke: none; stroke-width: 1; stroke-dasharray: none; stroke-linecap: butt; stroke-linejoin: miter; stroke-miterlimit: 10; fill: rgb(0,0,0); fill-rule: nonzero; opacity: 1;" transform=" matrix(1 0 0 1 0 0) " stroke-linecap="round" />
	<path d="M 81.855 41.045 H 57.099 c -4.49 0 -8.144 -3.654 -8.144 -8.145 V 8.144 C 48.955 3.653 52.608 0 57.099 0 h 24.757 C 86.347 0 90 3.653 90 8.144 v 24.757 C 90 37.392 86.347 41.045 81.855 41.045 z M 57.099 6 c -1.182 0 -2.144 0.962 -2.144 2.144 v 24.757 c 0 1.183 0.962 2.145 2.144 2.145 h 24.757 c 1.183 0 2.145 -0.962 2.145 -2.145 V 8.144 C 84 6.962 83.038 6 81.855 6 H 57.099 z" style="stroke: none; stroke-width: 1; stroke-dasharray: none; stroke-linecap: butt; stroke-linejoin: miter; stroke-miterlimit: 10; fill: rgb(0,0,0); fill-rule: nonzero; opacity: 1;" transform=" matrix(1 0 0 1 0 0) " stroke-linecap="round" />
	<path d="M 32.901 90 H 8.144 C 3.653 90 0 86.347 0 81.855 V 57.099 c 0 -4.49 3.653 -8.144 8.144 -8.144 h 24.757 c 4.491 0 8.145 3.653 8.145 8.144 v 24.757 C 41.045 86.347 37.392 90 32.901 90 z M 8.144 54.955 C 6.962 54.955 6 55.917 6 57.099 v 24.757 C 6 83.038 6.962 84 8.144 84 h 24.757 c 1.183 0 2.145 -0.962 2.145 -2.145 V 57.099 c 0 -1.182 -0.962 -2.144 -2.145 -2.144 H 8.144 z" style="stroke: none; stroke-width: 1; stroke-dasharray: none; stroke-linecap: butt; stroke-linejoin: miter; stroke-miterlimit: 10; fill: rgb(0,0,0); fill-rule: nonzero; opacity: 1;" transform=" matrix(1 0 0 1 0 0) " stroke-linecap="round" />
	<path d="M 81.855 90 H 57.099 c -4.49 0 -8.144 -3.653 -8.144 -8.145 V 57.099 c 0 -4.49 3.653 -8.144 8.144 -8.144 h 24.757 c 4.491 0 8.145 3.653 8.145 8.144 v 24.757 C 90 86.347 86.347 90 81.855 90 z M 57.099 54.955 c -1.182 0 -2.144 0.962 -2.144 2.144 v 24.757 c 0 1.183 0.962 2.145 2.144 2.145 h 24.757 C 83.038 84 84 83.038 84 81.855 V 57.099 c 0 -1.182 -0.962 -2.144 -2.145 -2.144 H 57.099 z" style="stroke: none; stroke-width: 1; stroke-dasharray: none; stroke-linecap: butt; stroke-linejoin: miter; stroke-miterlimit: 10; fill: rgb(0,0,0); fill-rule: nonzero; opacity: 1;" transform=" matrix(1 0 0 1 0 0) " stroke-linecap="round" />
</g>
</svg>