<svg xmlns="http://www.w3.org/2000/svg" xmlns:xlink="http://www.w3.org/1999/xlink" version="1.1" width="256" height="256" viewBox="0 0 256 256" xml:space="preserve">

<defs>
</defs>
<g style="stroke: none; stroke-width: 0; stroke-dasharray: none; stroke-linecap: butt; stroke-linejoin: miter; stroke-miterlimit: 10; fill: none; fill-rule: nonzero; opacity: 1;" transform="translate(1.4065934065934016 1.4065934065934016) scale(2.81 2.81)" >
	<path d="M 38.77 70.884 H 21.475 c -0.552 0 -1 0.447 -1 1 s 0.448 1 1 1 H 38.77 c 0.552 0 1 -0.447 1 -1 S 39.322 70.884 38.77 70.884 z" style="stroke: none; stroke-width: 1; stroke-dasharray: none; stroke-linecap: butt; stroke-linejoin: miter; stroke-miterlimit: 10; fill: rgb(0,0,0); fill-rule: nonzero; opacity: 1;" transform=" matrix(1 0 0 1 0 0) " stroke-linecap="round" />
	<path d="M 21.949 33.959 h 17.294 c 0.552 0 1 -0.448 1 -1 s -0.448 -1 -1 -1 H 21.949 c -0.552 0 -1 0.448 -1 1 S 21.397 33.959 21.949 33.959 z" style="stroke: none; stroke-width: 1; stroke-dasharray: none; stroke-linecap: butt; stroke-linejoin: miter; stroke-miterlimit: 10; fill: rgb(0,0,0); fill-rule: nonzero; opacity: 1;" transform=" matrix(1 0 0 1 0 0) " stroke-linecap="round" />
	<path d="M 21.475 53.463 h 9.458 c 0.552 0 1 -0.447 1 -1 s -0.448 -1 -1 -1 h -9.458 c -0.552 0 -1 0.447 -1 1 S 20.923 53.463 21.475 53.463 z" style="stroke: none; stroke-width: 1; stroke-dasharray: none; stroke-linecap: butt; stroke-linejoin: miter; stroke-miterlimit: 10; fill: rgb(0,0,0); fill-rule: nonzero; opacity: 1;" transform=" matrix(1 0 0 1 0 0) " stroke-linecap="round" />
	<path d="M 68.531 44.336 L 55.8 58.331 l -5.14 -7.148 c -0.322 -0.448 -0.947 -0.55 -1.396 -0.228 s -0.551 0.947 -0.228 1.396 l 5.86 8.15 c 0.176 0.245 0.453 0.397 0.754 0.414 c 0.02 0.001 0.039 0.002 0.058 0.002 c 0.28 0 0.55 -0.118 0.739 -0.327 L 70.01 45.682 c 0.372 -0.409 0.342 -1.041 -0.066 -1.413 C 69.536 43.898 68.903 43.928 68.531 44.336 z" style="stroke: none; stroke-width: 1; stroke-dasharray: none; stroke-linecap: butt; stroke-linejoin: miter; stroke-miterlimit: 10; fill: rgb(0,0,0); fill-rule: nonzero; opacity: 1;" transform=" matrix(1 0 0 1 0 0) " stroke-linecap="round" />
	<path d="M 79.98 52.463 c 0 -7.054 -3.597 -13.282 -9.051 -16.953 V 16.214 c 0 -2.741 -2.229 -4.971 -4.971 -4.971 h -9.586 c -0.102 -2.99 -2.56 -5.394 -5.574 -5.394 h -2.97 C 47.057 2.458 44.039 0 40.475 0 s -6.581 2.458 -7.354 5.85 h -2.969 c -3.015 0 -5.473 2.403 -5.575 5.394 h -9.586 c -2.741 0 -4.971 2.23 -4.971 4.971 v 68.815 c 0 2.741 2.23 4.971 4.971 4.971 h 50.968 c 2.741 0 4.971 -2.229 4.971 -4.971 V 69.415 C 76.384 65.745 79.98 59.517 79.98 52.463 z M 26.567 11.435 c 0 -1.977 1.608 -3.584 3.584 -3.584 h 3.815 c 0.512 0 0.94 -0.386 0.995 -0.895 C 35.26 4.13 37.63 2 40.475 2 s 5.215 2.13 5.514 4.955 c 0.054 0.509 0.483 0.895 0.995 0.895 h 3.815 c 1.977 0 3.584 1.608 3.584 3.584 v 3.748 H 26.567 V 11.435 z M 68.93 85.029 c 0 1.638 -1.333 2.971 -2.971 2.971 H 14.991 c -1.638 0 -2.971 -1.333 -2.971 -2.971 V 16.214 c 0 -1.638 1.333 -2.971 2.971 -2.971 h 9.576 v 2.938 c 0 0.552 0.448 1 1 1 h 29.816 c 0.553 0 1 -0.448 1 -1 v -2.938 h 9.576 c 1.638 0 2.971 1.333 2.971 2.971 v 18.124 c -2.81 -1.459 -5.992 -2.297 -9.37 -2.297 c -11.261 0 -20.421 9.161 -20.421 20.421 c 0 11.26 9.161 20.421 20.421 20.421 c 3.378 0 6.56 -0.838 9.37 -2.297 V 85.029 z M 59.56 70.884 c -10.157 0 -18.421 -8.264 -18.421 -18.421 s 8.264 -18.421 18.421 -18.421 S 77.98 42.306 77.98 52.463 S 69.717 70.884 59.56 70.884 z" style="stroke: none; stroke-width: 1; stroke-dasharray: none; stroke-linecap: butt; stroke-linejoin: miter; stroke-miterlimit: 10; fill: rgb(0,0,0); fill-rule: nonzero; opacity: 1;" transform=" matrix(1 0 0 1 0 0) " stroke-linecap="round" />
	<path d="M 40.475 9.591 c 0.552 0 1 -0.448 1 -1 V 6.465 c 0 -0.552 -0.448 -1 -1 -1 s -1 0.448 -1 1 v 2.126 C 39.475 9.144 39.923 9.591 40.475 9.591 z" style="stroke: none; stroke-width: 1; stroke-dasharray: none; stroke-linecap: butt; stroke-linejoin: miter; stroke-miterlimit: 10; fill: rgb(0,0,0); fill-rule: nonzero; opacity: 1;" transform=" matrix(1 0 0 1 0 0) " stroke-linecap="round" />
</g>
</svg>