<svg xmlns="http://www.w3.org/2000/svg" xmlns:xlink="http://www.w3.org/1999/xlink" version="1.1" width="256" height="256" viewBox="0 0 256 256" xml:space="preserve">

<defs>
</defs>
<g style="stroke: none; stroke-width: 0; stroke-dasharray: none; stroke-linecap: butt; stroke-linejoin: miter; stroke-miterlimit: 10; fill: none; fill-rule: nonzero; opacity: 1;" transform="translate(1.4065934065934016 1.4065934065934016) scale(2.81 2.81)" >
	<path d="M 33.091 23.89 l -7.916 8.703 l -2.257 -3.546 c -0.297 -0.466 -0.916 -0.604 -1.38 -0.307 c -0.466 0.296 -0.604 0.915 -0.307 1.38 l 2.959 4.651 c 0.167 0.263 0.448 0.433 0.758 0.459 c 0.028 0.003 0.057 0.004 0.085 0.004 c 0.28 0 0.549 -0.118 0.74 -0.327 l 8.797 -9.671 c 0.372 -0.409 0.342 -1.041 -0.067 -1.413 C 34.096 23.452 33.463 23.482 33.091 23.89 z" style="stroke: none; stroke-width: 1; stroke-dasharray: none; stroke-linecap: butt; stroke-linejoin: miter; stroke-miterlimit: 10; fill: rgb(0,0,0); fill-rule: nonzero; opacity: 1;" transform=" matrix(1 0 0 1 0 0) " stroke-linecap="round" />
	<path d="M 17.656 39.338 h 14.508 c 0.552 0 1 -0.448 1 -1 v -5.353 c 0 -0.552 -0.448 -1 -1 -1 s -1 0.448 -1 1 v 4.353 H 18.656 V 25.765 h 9.338 c 0.552 0 1 -0.448 1 -1 s -0.448 -1 -1 -1 H 17.656 c -0.552 0 -1 0.448 -1 1 v 13.573 C 16.656 38.891 17.104 39.338 17.656 39.338 z" style="stroke: none; stroke-width: 1; stroke-dasharray: none; stroke-linecap: butt; stroke-linejoin: miter; stroke-miterlimit: 10; fill: rgb(0,0,0); fill-rule: nonzero; opacity: 1;" transform=" matrix(1 0 0 1 0 0) " stroke-linecap="round" />
	<path d="M 38.952 29.182 h 24.307 c 0.553 0 1 -0.448 1 -1 s -0.447 -1 -1 -1 H 38.952 c -0.552 0 -1 0.448 -1 1 S 38.4 29.182 38.952 29.182 z" style="stroke: none; stroke-width: 1; stroke-dasharray: none; stroke-linecap: butt; stroke-linejoin: miter; stroke-miterlimit: 10; fill: rgb(0,0,0); fill-rule: nonzero; opacity: 1;" transform=" matrix(1 0 0 1 0 0) " stroke-linecap="round" />
	<path d="M 60.918 33.72 H 38.952 c -0.552 0 -1 0.448 -1 1 s 0.448 1 1 1 h 21.966 c 0.553 0 1 -0.448 1 -1 S 61.471 33.72 60.918 33.72 z" style="stroke: none; stroke-width: 1; stroke-dasharray: none; stroke-linecap: butt; stroke-linejoin: miter; stroke-miterlimit: 10; fill: rgb(0,0,0); fill-rule: nonzero; opacity: 1;" transform=" matrix(1 0 0 1 0 0) " stroke-linecap="round" />
	<path d="M 33.091 44.439 l -7.916 8.702 l -2.257 -3.547 c -0.296 -0.465 -0.916 -0.602 -1.38 -0.307 c -0.466 0.297 -0.604 0.915 -0.307 1.381 l 2.959 4.651 c 0.167 0.263 0.448 0.433 0.758 0.459 c 0.028 0.003 0.057 0.004 0.085 0.004 c 0.28 0 0.549 -0.118 0.74 -0.327 l 8.797 -9.671 c 0.372 -0.409 0.342 -1.041 -0.067 -1.413 C 34.096 44 33.463 44.032 33.091 44.439 z" style="stroke: none; stroke-width: 1; stroke-dasharray: none; stroke-linecap: butt; stroke-linejoin: miter; stroke-miterlimit: 10; fill: rgb(0,0,0); fill-rule: nonzero; opacity: 1;" transform=" matrix(1 0 0 1 0 0) " stroke-linecap="round" />
	<path d="M 17.656 59.888 h 14.508 c 0.552 0 1 -0.447 1 -1 v -5.353 c 0 -0.553 -0.448 -1 -1 -1 s -1 0.447 -1 1 v 4.353 H 18.656 V 46.314 h 9.338 c 0.552 0 1 -0.448 1 -1 s -0.448 -1 -1 -1 H 17.656 c -0.552 0 -1 0.448 -1 1 v 13.574 C 16.656 59.44 17.104 59.888 17.656 59.888 z" style="stroke: none; stroke-width: 1; stroke-dasharray: none; stroke-linecap: butt; stroke-linejoin: miter; stroke-miterlimit: 10; fill: rgb(0,0,0); fill-rule: nonzero; opacity: 1;" transform=" matrix(1 0 0 1 0 0) " stroke-linecap="round" />
	<path d="M 60.259 47.73 H 38.952 c -0.552 0 -1 0.447 -1 1 s 0.448 1 1 1 h 21.307 c 0.553 0 1 -0.447 1 -1 S 60.812 47.73 60.259 47.73 z" style="stroke: none; stroke-width: 1; stroke-dasharray: none; stroke-linecap: butt; stroke-linejoin: miter; stroke-miterlimit: 10; fill: rgb(0,0,0); fill-rule: nonzero; opacity: 1;" transform=" matrix(1 0 0 1 0 0) " stroke-linecap="round" />
	<path d="M 38.952 56.27 h 18.966 c 0.553 0 1 -0.447 1 -1 s -0.447 -1 -1 -1 H 38.952 c -0.552 0 -1 0.447 -1 1 S 38.4 56.27 38.952 56.27 z" style="stroke: none; stroke-width: 1; stroke-dasharray: none; stroke-linecap: butt; stroke-linejoin: miter; stroke-miterlimit: 10; fill: rgb(0,0,0); fill-rule: nonzero; opacity: 1;" transform=" matrix(1 0 0 1 0 0) " stroke-linecap="round" />
	<path d="M 33.091 64.988 l -7.916 8.703 l -2.257 -3.547 c -0.297 -0.465 -0.915 -0.603 -1.381 -0.307 c -0.466 0.297 -0.603 0.915 -0.307 1.381 l 2.959 4.65 c 0.167 0.263 0.448 0.433 0.758 0.459 c 0.028 0.003 0.057 0.004 0.085 0.004 c 0.28 0 0.549 -0.118 0.74 -0.327 l 8.797 -9.671 c 0.372 -0.408 0.342 -1.041 -0.067 -1.412 C 34.096 64.55 33.463 64.581 33.091 64.988 z" style="stroke: none; stroke-width: 1; stroke-dasharray: none; stroke-linecap: butt; stroke-linejoin: miter; stroke-miterlimit: 10; fill: rgb(0,0,0); fill-rule: nonzero; opacity: 1;" transform=" matrix(1 0 0 1 0 0) " stroke-linecap="round" />
	<path d="M 32.164 73.084 c -0.552 0 -1 0.447 -1 1 v 4.354 H 18.656 V 66.863 h 9.338 c 0.552 0 1 -0.447 1 -1 s -0.448 -1 -1 -1 H 17.656 c -0.552 0 -1 0.447 -1 1 v 13.574 c 0 0.553 0.448 1 1 1 h 14.508 c 0.552 0 1 -0.447 1 -1 v -5.354 C 33.164 73.531 32.716 73.084 32.164 73.084 z" style="stroke: none; stroke-width: 1; stroke-dasharray: none; stroke-linecap: butt; stroke-linejoin: miter; stroke-miterlimit: 10; fill: rgb(0,0,0); fill-rule: nonzero; opacity: 1;" transform=" matrix(1 0 0 1 0 0) " stroke-linecap="round" />
	<path d="M 38.952 70.28 h 17.307 c 0.553 0 1 -0.447 1 -1 s -0.447 -1 -1 -1 H 38.952 c -0.552 0 -1 0.447 -1 1 S 38.4 70.28 38.952 70.28 z" style="stroke: none; stroke-width: 1; stroke-dasharray: none; stroke-linecap: butt; stroke-linejoin: miter; stroke-miterlimit: 10; fill: rgb(0,0,0); fill-rule: nonzero; opacity: 1;" transform=" matrix(1 0 0 1 0 0) " stroke-linecap="round" />
	<path d="M 58.918 74.818 H 38.952 c -0.552 0 -1 0.447 -1 1 s 0.448 1 1 1 h 19.966 c 0.553 0 1 -0.447 1 -1 S 59.471 74.818 58.918 74.818 z" style="stroke: none; stroke-width: 1; stroke-dasharray: none; stroke-linecap: butt; stroke-linejoin: miter; stroke-miterlimit: 10; fill: rgb(0,0,0); fill-rule: nonzero; opacity: 1;" transform=" matrix(1 0 0 1 0 0) " stroke-linecap="round" />
	<path d="M 78.562 15.922 c -1.177 -0.221 -2.342 -0.128 -3.41 0.218 V 4.891 C 75.151 2.194 72.957 0 70.26 0 H 20.838 C 20.818 0 20.8 0.011 20.78 0.012 c -0.093 0.005 -0.183 0.024 -0.271 0.055 c -0.03 0.011 -0.06 0.018 -0.089 0.032 c -0.104 0.048 -0.203 0.109 -0.287 0.193 c -0.001 0.001 -0.001 0.001 -0.002 0.001 L 6.058 14.366 c -0.003 0.003 -0.004 0.006 -0.007 0.008 c -0.081 0.083 -0.141 0.178 -0.188 0.28 c -0.014 0.031 -0.023 0.063 -0.034 0.096 c -0.03 0.086 -0.047 0.173 -0.053 0.263 c -0.001 0.022 -0.013 0.04 -0.013 0.062 v 70.035 c 0 2.696 2.194 4.891 4.891 4.891 H 70.26 c 2.697 0 4.892 -2.194 4.892 -4.891 V 70.349 c 0.371 -0.946 0.665 -1.927 0.855 -2.944 l 8.111 -43.371 C 84.821 20.265 82.329 16.626 78.562 15.922 z M 78.194 17.888 c 0.671 0.125 1.285 0.382 1.821 0.737 c 1.34 0.889 2.191 2.399 2.22 4.043 c 0.006 0.329 -0.021 0.663 -0.084 0.998 l -0.308 1.646 l -0.232 1.242 l -9.734 -1.82 l 0.54 -2.889 C 72.918 19.161 75.503 17.384 78.194 17.888 z M 19.838 3.414 v 10.661 H 9.177 L 19.838 3.414 z M 73.151 85.109 c 0 1.594 -1.297 2.891 -2.892 2.891 H 10.654 c -1.594 0 -2.891 -1.297 -2.891 -2.891 V 16.075 h 13.075 c 0.552 0 1 -0.448 1 -1 V 2 H 70.26 c 1.595 0 2.892 1.297 2.892 2.891 V 17.18 c -1.361 1.008 -2.365 2.506 -2.701 4.298 L 62.339 64.85 c -0.63 3.372 -0.186 6.793 1.287 9.893 l 2.233 4.701 c 0.138 0.289 0.405 0.495 0.72 0.555 c 0.061 0.011 0.122 0.017 0.184 0.017 c 0.253 0 0.5 -0.097 0.688 -0.273 l 3.781 -3.576 c 0.713 -0.675 1.349 -1.41 1.92 -2.186 V 85.109 z M 73.238 69.767 c -0.005 0.011 -0.008 0.022 -0.012 0.033 c -0.754 1.846 -1.891 3.514 -3.369 4.912 l -2.781 2.631 l -1.643 -3.458 c -1.146 -2.414 -1.582 -5.048 -1.277 -7.678 l 9.667 1.807 C 73.666 68.614 73.469 69.198 73.238 69.767 z M 74.225 66.054 l -9.735 -1.82 l 7.02 -37.534 l 9.735 1.82 L 74.225 66.054 z" style="stroke: none; stroke-width: 1; stroke-dasharray: none; stroke-linecap: butt; stroke-linejoin: miter; stroke-miterlimit: 10; fill: rgb(0,0,0); fill-rule: nonzero; opacity: 1;" transform=" matrix(1 0 0 1 0 0) " stroke-linecap="round" />
	<path d="M 75.645 31.519 c -0.538 -0.102 -1.064 0.257 -1.167 0.799 L 69.235 60.35 c -0.102 0.543 0.257 1.065 0.8 1.167 c 0.062 0.011 0.124 0.017 0.185 0.017 c 0.472 0 0.892 -0.335 0.982 -0.816 l 5.242 -28.031 C 76.546 32.143 76.188 31.621 75.645 31.519 z" style="stroke: none; stroke-width: 1; stroke-dasharray: none; stroke-linecap: butt; stroke-linejoin: miter; stroke-miterlimit: 10; fill: rgb(0,0,0); fill-rule: nonzero; opacity: 1;" transform=" matrix(1 0 0 1 0 0) " stroke-linecap="round" />
</g>
</svg>